<svg version="1.1" xmlns="http://www.w3.org/2000/svg" xmlns:xlink="http://www.w3.org/1999/xlink" x="0px" y="0px" width="129.8px"
	 height="96px" viewBox="0 0 129.8 96" style="enable-background:new 0 0 129.8 96;" xml:space="preserve">
<style type="text/css">
	.st0{fill:#D4145A;stroke:#000000;stroke-miterlimit:10;}
	.st1{fill:#D4145A;}
	.st2{fill:#FFD415;}
	.st3{fill:url(#SVGID_1_);}
	.st4{fill:url(#SVGID_2_);}
	.st5{fill:url(#SVGID_3_);}
	.st6{fill:url(#SVGID_4_);}
	.st7{fill:url(#SVGID_5_);}
	.st8{fill:url(#SVGID_6_);}
</style>
<defs>
</defs>
<g>
	<line class="st0" x1="63.28" y1="38.64" x2="63.27" y2="38.64"/>
	<line class="st1" x1="6.74" y1="83.28" x2="6.74" y2="83.28"/>
	<line class="st1" x1="17.5" y1="11.16" x2="17.5" y2="11.16"/>
	<line class="st1" x1="25.35" y1="9.95" x2="25.28" y2="9.94"/>
	<path class="st1" d="M63.27,39.13H58.6c-5.63-0.35-9.68-6.32-9.68-6.32c-5.58-7.59-11-12.88-22.42-11
		c-5.32,0.87-8.66,4.55-10.71,8.23c0.71-4.92,2.29-14.04,4.83-19.76C24.06,9,27.77,8.29,31.65,8.29C48.77,8.29,62.72,22,63.27,39.13
		z"/>
	<path class="st2" d="M21.33,79.73c-2.98-0.64-14.46,3.98-14.59,4.03C2.52,78.34,0,71.51,0,64.08V45.77
		C2.7,57.73,12.79,64.6,12.79,64.6v1.22C13.78,73.75,21.33,79.73,21.33,79.73z"/>
	<linearGradient id="SVGID_1_" gradientUnits="userSpaceOnUse" x1="5.7292" y1="58.3405" x2="9.9692" y2="15.4205">
		<stop  offset="0" style="stop-color:#606060"/>
		<stop  offset="0.1913" style="stop-color:#7C4E5F"/>
		<stop  offset="0.5589" style="stop-color:#AB2F5C"/>
		<stop  offset="0.8404" style="stop-color:#C91B5B"/>
		<stop  offset="1" style="stop-color:#D4145A"/>
	</linearGradient>
	<path class="st3" d="M17.5,11.65c-4.26,6.81-4.71,26.81-4.71,26.81V64.6c0,0-10.09-6.86-12.79-18.82v-5.58
		C0,27.7,7.12,16.89,17.5,11.65z"/>
	<path class="st1" d="M63,68.45C60.89,84,47.66,95.98,31.65,95.98c-8.98,0-17.09-3.77-22.85-9.83c0.06,0.06,2.08-0.91,2.23-0.97
		c1.95-0.77,3.96-1.39,6-1.89c2.69-0.66,5.43-1.1,8.19-1.28c1.51-0.1,3.06-0.16,4.57-0.1c2.38,0.1,4.76,0.11,7.12-0.5
		c1.71-0.45,3.38-1.08,4.93-1.94c4-2.22,6.73-5.96,7.48-10.53c0.03-0.17,0.05-0.33,0.07-0.5H63z"/>
	<line class="st1" x1="8.8" y1="86.15" x2="8.8" y2="86.15"/>
	<line class="st1" x1="6.74" y1="83.77" x2="6.74" y2="83.77"/>
	<path class="st1" d="M12.79,38.46"/>
	<path class="st1" d="M63,52.21v12.83H33.03c0.1-12.21,10.79-12.83,10.79-12.83H63z"/>
	<path id="D_editable_atrás_1_" class="st1" d="M79.08,79.48l-0.01-54.07c0,0-7.91,1.55-13.24-7.45l0.02,69.28
		C71.17,78.25,79.08,79.48,79.08,79.48z"/>
	<path class="st1" d="M97.2,95.49V82.5c-0.13,0-0.26,0-0.39,0H79.49c-2.82,0.01-5.43,0.9-7.58,2.41c-3.46,2.43-5.73,6.47-5.73,11.05
		V96h26.69v-0.04h2.18C95.56,95.99,96.08,96,96.6,96c0.2,0,0.4,0,0.6-0.01V95.49z"/>
	<linearGradient id="SVGID_2_" gradientUnits="userSpaceOnUse" x1="104.1347" y1="83.0821" x2="127.1193" y2="60.9335">
		<stop  offset="0" style="stop-color:#606060"/>
		<stop  offset="0.1913" style="stop-color:#7C4E5F"/>
		<stop  offset="0.5589" style="stop-color:#AB2F5C"/>
		<stop  offset="0.8404" style="stop-color:#C91B5B"/>
		<stop  offset="1" style="stop-color:#D4145A"/>
	</linearGradient>
	<path class="st4" d="M129.8,45.58v16.9c0,3.52-0.54,6.91-1.54,10.1c-9.03,9.23-28.33,9.63-28.33,9.63
		c6.61-1.07,12.12-5.47,14.78-11.44h0c1.09-2.46,1.7-5.2,1.7-8.07v-1.42C123.91,55.68,127.86,49.54,129.8,45.58z"/>
	<path class="st2" d="M128.27,72.62c-3.93,12.52-14.96,21.86-28.33,23.21V82.26C99.94,82.26,119.24,81.86,128.27,72.62z"/>
	<path class="st2" d="M129.76,40.93c-4.02,9.59-10.04,14.4-13.33,16.44v-14.9c0-2.84-0.59-5.53-1.66-7.97
		c-0.2-0.46-0.42-0.92-0.66-1.36c2.11-11.43-5.28-20.53-6.55-21.99C119.96,15.52,129.02,27.11,129.76,40.93z"/>
	<linearGradient id="SVGID_3_" gradientUnits="userSpaceOnUse" x1="124.7966" y1="28.3548" x2="79.4694" y2="12.2686">
		<stop  offset="0" style="stop-color:#606060"/>
		<stop  offset="0.1913" style="stop-color:#7C4E5F"/>
		<stop  offset="0.5589" style="stop-color:#AB2F5C"/>
		<stop  offset="0.8404" style="stop-color:#C91B5B"/>
		<stop  offset="1" style="stop-color:#D4145A"/>
	</linearGradient>
	<path class="st5" d="M114.1,33.14c-3.3-6.21-9.81-10.44-17.29-10.44H80.07c-2.97,0-5.73-0.92-8.02-2.49
		c-3.76-2.58-6.23-6.94-6.23-11.87V0c0.1,1.19,0.4,2.33,0.88,3.37c1.48,3.24,4.62,5.56,8.32,5.85c0.26,0.02,0.52,0.03,0.78,0.03
		c0.22,0,0.43-0.01,0.65-0.02l17.82,0.13v0c0,0,0,0.01,0,0.01c0.77-0.05,1.54-0.08,2.33-0.08c3.84,0,7.52,0.66,10.95,1.86
		C108.82,12.61,116.22,21.71,114.1,33.14z"/>
</g>
</svg>
