<svg width="47" height="29" viewBox="0 0 47 29" fill="none" xmlns="http://www.w3.org/2000/svg">
<path d="M13.248 10.2432C13.248 10.8219 13.3068 11.2919 13.4184 11.6386C13.5418 11.9823 13.7004 12.3583 13.9178 12.7666C13.9872 12.8745 14.0248 12.9997 14.0265 13.1279C14.0265 13.2836 13.9325 13.4422 13.7327 13.5979L12.7457 14.2559C12.6272 14.3415 12.4863 14.3905 12.3403 14.3969C12.1817 14.3969 12.026 14.3206 11.8703 14.1796C11.6592 13.9524 11.4703 13.7055 11.3063 13.4422C11.1316 13.1409 10.9698 12.8322 10.8216 12.5169C9.60253 13.9592 8.07207 14.6819 6.22728 14.6819C4.9142 14.6819 3.86549 14.3029 3.10173 13.5509C2.33503 12.7989 1.94434 11.7943 1.94434 10.5399C1.94434 9.20628 2.41434 8.12527 3.36611 7.30863C4.32081 6.49199 5.5869 6.0866 7.19668 6.0866C7.72544 6.0866 8.27476 6.13361 8.85346 6.20998C9.43215 6.2893 10.0285 6.41561 10.6512 6.55661V5.41097C10.6512 4.21832 10.4015 3.387 9.91685 2.9023C9.41747 2.41467 8.57145 2.17966 7.36705 2.17966C6.82067 2.17966 6.2596 2.24429 5.6809 2.38529C5.10594 2.52213 4.54148 2.69981 3.99181 2.91699C3.81435 2.99734 3.63183 3.06603 3.44542 3.12262C3.36465 3.1493 3.28068 3.16511 3.19573 3.16962C2.97542 3.16962 2.86673 3.01099 2.86673 2.68198V1.91235C2.86673 1.66265 2.8961 1.47171 2.97542 1.36596C3.09379 1.22183 3.24485 1.10803 3.41605 1.03402C3.9595 0.752014 4.61751 0.517009 5.38421 0.329006C6.14797 0.123377 6.96167 0.0323135 7.82238 0.0323135C9.68185 0.0323135 11.0419 0.455321 11.9173 1.30134C12.778 2.14735 13.2157 3.434 13.2157 5.16128V10.2432H13.2451H13.248ZM6.89998 12.6256C7.41406 12.6256 7.94575 12.5316 8.50976 12.3436C9.07083 12.1556 9.57316 11.809 9.99323 11.3389C10.2451 11.0504 10.4271 10.7076 10.5249 10.3372C10.6189 9.9583 10.6835 9.50591 10.6835 8.97128V8.31327C10.2091 8.19821 9.72853 8.10995 9.24415 8.04889C8.75707 7.98588 8.26651 7.9535 7.77537 7.95195C6.72667 7.95195 5.95997 8.15758 5.4459 8.58059C4.92889 9.00359 4.68213 9.59992 4.68213 10.3842C4.68213 11.1186 4.8672 11.668 5.25789 12.0469C5.6339 12.4376 6.18028 12.6256 6.89998 12.6256ZM19.4521 14.3206C19.1701 14.3206 18.9821 14.2736 18.8588 14.1619C18.7324 14.0679 18.6237 13.8506 18.5297 13.5509L14.8578 1.42765C14.7854 1.22446 14.7371 1.01347 14.7139 0.799015C14.7139 0.549323 14.8402 0.408321 15.0899 0.408321H16.6233C16.917 0.408321 17.1227 0.455321 17.2314 0.564011C17.3577 0.658012 17.4517 0.878328 17.5457 1.17502L20.1718 11.5593L22.61 1.17502C22.6864 0.86364 22.7804 0.658012 22.9038 0.564011C23.0922 0.448558 23.3118 0.39418 23.5324 0.408321H24.7809C25.0805 0.408321 25.2802 0.455321 25.4066 0.564011C25.5329 0.658012 25.6416 0.878328 25.7032 1.17502L28.1737 11.6856L30.8763 1.17502C30.9264 0.947578 31.0347 0.737042 31.1906 0.564011C31.3726 0.448654 31.5866 0.394133 31.8016 0.408321H33.2557C33.5054 0.408321 33.6464 0.534635 33.6464 0.799015C33.6464 0.878329 33.6288 0.957642 33.617 1.05164C33.5918 1.185 33.5544 1.31577 33.5054 1.44234L29.7365 13.5656C29.6425 13.8799 29.5338 14.0856 29.4104 14.1796C29.233 14.293 29.0243 14.3475 28.8141 14.3352H27.4717C27.175 14.3352 26.9723 14.2882 26.846 14.1796C26.7196 14.0679 26.611 13.8652 26.5493 13.5509L24.1258 3.43693L21.717 13.5392C21.6406 13.8535 21.5466 14.0562 21.4232 14.1649C21.2969 14.2765 21.0766 14.3235 20.7975 14.3235H19.4521V14.3206ZM39.5391 14.7436C38.7279 14.7447 37.9194 14.65 37.1303 14.4616C36.3489 14.2736 35.7409 14.0679 35.3325 13.8329C35.0828 13.6919 34.9125 13.5362 34.8478 13.3923C34.7881 13.2541 34.7571 13.1052 34.7568 12.9546V12.1556C34.7568 11.8266 34.8802 11.668 35.1152 11.668C35.2111 11.6682 35.3063 11.684 35.3972 11.715C35.4912 11.7473 35.6322 11.809 35.7879 11.8736C36.3166 12.1086 36.8983 12.2966 37.5063 12.4229C38.132 12.5463 38.7401 12.6109 39.3658 12.6109C40.3528 12.6109 41.1166 12.4376 41.6483 12.0939C41.9037 11.9393 42.1136 11.7197 42.2565 11.4576C42.3994 11.1954 42.4703 10.9001 42.462 10.6016C42.4673 10.4001 42.4326 10.1995 42.36 10.0115C42.2874 9.82343 42.1783 9.6516 42.039 9.50591C41.7599 9.20628 41.2282 8.93897 40.4615 8.68928L38.1937 7.98426C37.0539 7.62294 36.2079 7.08831 35.6939 6.3833C35.1906 5.73187 34.916 4.9328 34.9125 4.10963C34.9125 3.45162 35.0535 2.86999 35.3325 2.36767C35.6145 1.86828 35.9905 1.42765 36.4606 1.08102C36.9306 0.722638 37.4593 0.455321 38.085 0.267317C38.7107 0.0793141 39.3658 0 40.0532 0C40.3998 0 40.7582 0.0146889 41.1019 0.0616897C41.4603 0.108691 41.7893 0.173316 42.1183 0.237943C42.4297 0.314319 42.7293 0.390695 43.0084 0.487634C43.2904 0.581636 43.5077 0.675637 43.6664 0.769638C43.8508 0.862265 44.0116 0.995914 44.1364 1.16033C44.2369 1.31328 44.2854 1.49463 44.2744 1.67734V2.41467C44.2744 2.74367 44.1511 2.91699 43.9161 2.91699C43.708 2.89323 43.5065 2.82939 43.3227 2.72899C42.3781 2.31016 41.3537 2.10168 40.3205 2.11797C39.4304 2.11797 38.7254 2.25898 38.2407 2.55861C37.756 2.85236 37.5063 3.31062 37.5063 3.95394C37.5063 4.39164 37.662 4.76765 37.9763 5.06728C38.2877 5.36397 38.8664 5.66066 39.6948 5.92798L41.9156 6.63299C43.0407 6.99431 43.8544 7.49663 44.3391 8.13995C44.8238 8.78328 45.0558 9.5206 45.0558 10.3372C45.0558 11.0129 44.9178 11.621 44.6504 12.1556C44.3737 12.6921 43.985 13.1629 43.5107 13.5362C43.026 13.9269 42.4473 14.2119 41.7746 14.4146C41.0696 14.6349 40.3352 14.7436 39.5391 14.7436Z" fill="#252F3E"/>
<path fill-rule="evenodd" clip-rule="evenodd" d="M42.4915 22.3635C37.3507 26.1735 29.8776 28.1974 23.4532 28.1974C14.4496 28.1974 6.33609 24.8574 0.208361 19.3055C-0.276335 18.8648 0.16136 18.2685 0.73712 18.6152C7.36717 22.4722 15.5424 24.8104 24.0025 24.8104C29.7043 24.8104 35.973 23.6178 41.7424 21.1708C42.6031 20.7801 43.3375 21.7348 42.4915 22.3635Z" fill="#FF9900"/>
<path fill-rule="evenodd" clip-rule="evenodd" d="M44.6332 19.9166C43.9781 19.0736 40.2886 19.5113 38.6171 19.714C38.1177 19.7786 38.0384 19.3379 38.4908 19.0089C41.4283 16.938 46.2606 17.5343 46.8217 18.2246C47.3857 18.9296 46.666 23.7766 43.9135 26.0972C43.4934 26.4586 43.088 26.2735 43.2731 25.8035C43.8988 24.2466 45.2912 20.7509 44.6332 19.9196V19.9166Z" fill="#FF9900"/>
</svg>
