<svg width="47" height="53" viewBox="0 0 47 53" fill="none" xmlns="http://www.w3.org/2000/svg">
<path d="M46.9818 15.5377C46.9998 14.7181 46.8024 13.9081 46.4092 13.1888C46.0017 12.4935 45.4142 11.9209 44.7086 11.5314C38.4537 7.91995 32.1966 4.31349 25.9374 0.712069C24.252 -0.262475 22.6184 -0.227901 20.9437 0.761768C18.4545 2.22466 5.98859 9.37492 2.27411 11.5293C0.744238 12.4152 0.000910916 13.7722 0.000910916 15.5355V37.3169C-0.0148775 38.1191 0.174805 38.9121 0.551924 39.6203C0.95962 40.3368 1.55801 40.9263 2.28059 41.3231C5.99507 43.4839 18.4631 50.6256 20.9524 52.0949C22.627 53.0846 24.2606 53.1192 25.9482 52.1446C32.2017 48.5317 38.4587 44.9238 44.7194 41.3209C45.442 40.9241 46.0404 40.3347 46.4481 39.6182C46.8252 38.9099 47.0149 38.117 46.9991 37.3147V15.5377H46.9818Z" fill="#004482"/>
<path d="M46.9991 37.333C47.0153 38.1347 46.8261 38.9271 46.4497 39.6347C46.3572 39.8032 46.2528 39.9648 46.1373 40.1184L23.5732 26.4505L44.7282 11.567C45.4311 11.9563 46.0161 12.5284 46.4217 13.2231C46.8154 13.9413 47.0131 14.7509 46.9948 15.5702C46.9991 22.8251 46.9991 37.333 46.9991 37.333Z" fill="#00599C"/>
<path d="M46.4143 13.1625L0.547801 39.5327C0.172321 38.8264 -0.0158905 38.036 0.00105047 37.2367V15.5038C0.00105047 13.7446 0.746619 12.3907 2.2745 11.5068C5.99153 9.35747 18.4587 2.22381 20.9505 0.760001C22.621 -0.227372 24.2569 -0.261865 25.9425 0.710417C32.1967 4.31497 38.4544 7.9145 44.7157 11.509C45.4207 11.8977 46.0075 12.469 46.4143 13.1625Z" fill="#659AD2"/>
<path d="M24.4116 35.2233C22.8709 35.2255 21.3578 34.8131 20.0305 34.0292C18.7032 33.2453 17.6103 32.1187 16.866 30.767C16.7898 30.6317 16.7179 30.4934 16.6504 30.3523C15.732 28.452 15.5411 26.2802 16.1137 24.2482C16.6863 22.2163 17.9827 20.4653 19.7574 19.3268C21.5321 18.1883 23.6618 17.7414 25.7434 18.0707C27.8249 18.4 29.7136 19.4827 31.0518 21.1136C31.1661 21.2519 31.2674 21.3966 31.3817 21.5456C31.4334 21.6169 31.4852 21.6882 31.5326 21.7616L39.0934 17.3983C38.9094 17.1016 38.7168 16.8136 38.5156 16.5342C38.41 16.3852 38.3 16.2426 38.1965 16.1022C35.5686 12.6817 31.7568 10.372 27.5129 9.62861C23.269 8.88527 18.9012 9.76228 15.2709 12.0867C11.6406 14.411 9.01141 18.014 7.90188 22.185C6.79235 26.356 7.28304 30.7921 9.27717 34.6185C9.35047 34.7567 9.42593 34.8928 9.49276 35.0289C10.9573 37.6179 13.065 39.7835 15.6113 41.3156C18.1576 42.8476 21.056 43.6941 24.0251 43.7728C26.9942 43.8515 29.9332 43.1597 32.5568 41.7647C35.1804 40.3696 37.3994 38.3186 38.9985 35.8108L31.6059 31.333C30.8232 32.5288 29.7558 33.5105 28.4998 34.1897C27.2438 34.8688 25.8389 35.2241 24.4116 35.2233Z" fill="white"/>
</svg>
