<svg width="48" height="53" viewBox="0 0 48 53" fill="none" xmlns="http://www.w3.org/2000/svg">
<g clip-path="url(#clip0_383_33)">
<path d="M47.0203 15.5892C47.0199 14.7005 46.8299 13.9151 46.4456 13.2411C46.068 12.5783 45.5026 12.0228 44.7443 11.5835C38.4842 7.97344 32.2182 4.3744 25.9602 0.760644C24.273 -0.213502 22.6373 -0.177988 20.9626 0.810142C18.471 2.27983 5.996 9.42804 2.27863 11.5815C0.747706 12.4679 0.00275974 13.8244 0.00239178 15.5876C0 22.8477 0.00239178 30.1076 0 37.3678C0.000367966 38.2371 0.182327 39.0072 0.549741 39.6711C0.927458 40.3539 1.50075 40.9247 2.2766 41.3739C5.99416 43.5274 18.4708 50.675 20.9619 52.1451C22.6372 53.1338 24.273 53.1691 25.9607 52.1946C32.2189 48.5806 38.4853 44.9818 44.7463 41.3717C45.5221 40.9227 46.0954 40.3515 46.4731 39.6692C46.84 39.0053 47.0223 38.2353 47.0227 37.3658C47.0227 37.3658 47.0227 22.8495 47.0203 15.5892Z" fill="#5C8DBC"/>
<path d="M23.5834 26.407L0.549805 39.6711C0.927522 40.354 1.50081 40.9248 2.27667 41.3739C5.99423 43.5274 18.4708 50.6751 20.962 52.1451C22.6373 53.1338 24.2731 53.1691 25.9608 52.1946C32.219 48.5807 38.4854 44.9818 44.7464 41.3717C45.5222 40.9227 46.0955 40.3516 46.4732 39.6693L23.5834 26.407Z" fill="#1A4674"/>
<path d="M16.7612 30.3359C18.1015 32.6762 20.6212 34.2546 23.5116 34.2546C26.4198 34.2546 28.9538 32.6561 30.2873 30.2909L23.5835 26.407L16.7612 30.3359Z" fill="#1A4674"/>
<path d="M47.0205 15.5892C47.0202 14.7005 46.8301 13.9151 46.4458 13.2411L23.5835 26.407L46.4734 39.6692C46.8402 39.0053 47.0225 38.2353 47.0229 37.3658C47.0229 37.3658 47.0229 22.8495 47.0205 15.5892Z" fill="#1B598E"/>
<path d="M45.7618 27.355H43.9731V29.1443H42.1841V27.355H40.3956V25.5663H42.1841V23.7773H43.9731V25.5663H45.7618V27.355ZM39.235 27.355H37.4465V29.1443H35.6578V27.355H33.8691V25.5663H35.6578V23.7773H37.4465V25.5663H39.235V27.355Z" fill="white"/>
<path d="M30.2873 30.2909C28.9538 32.6562 26.4198 34.2547 23.5115 34.2547C20.6212 34.2547 18.1015 32.6763 16.7612 30.336C16.0879 29.1617 15.7343 27.8314 15.7357 26.4777C15.7357 22.1828 19.2172 18.7009 23.5115 18.7009C26.3833 18.7009 28.8897 20.2597 30.2367 22.576L37.0332 18.6617C34.3318 13.9978 29.2882 10.8601 23.5115 10.8601C14.8872 10.8601 7.896 17.8525 7.896 26.4777C7.896 29.3074 8.64867 31.961 9.96415 34.2499C12.6588 38.9385 17.7166 42.0955 23.5115 42.0955C29.3171 42.0955 34.3829 38.9258 37.0737 34.2234L30.2873 30.2909Z" fill="white"/>
</g>
<defs>
<clipPath id="clip0_383_33">
<rect width="47.0996" height="53" fill="white"/>
</clipPath>
</defs>
</svg>
