<svg width="48" height="54" viewBox="0 0 48 54" fill="none" xmlns="http://www.w3.org/2000/svg">
<path d="M47.4583 0H0L4.1875 47.4583L23.7292 53.0417L43.2708 47.4583L47.4583 0Z" fill="#0277BD"/>
<path d="M23.729 4.1875V48.7146L39.3623 44.2479L42.8519 4.1875H23.729Z" fill="#039BE5"/>
<path d="M36.4311 11.1666H23.729V16.75H30.5686L30.1498 22.3333H23.729V27.9166H29.8707L29.4519 34.1979L23.729 36.152V42.0145L34.7561 38.3854L35.7332 22.3333L36.4311 11.1666Z" fill="white"/>
<path d="M23.7294 11.1666V16.75H11.3064L10.8877 11.1666H23.7294ZM17.3085 22.3333L17.5877 27.9166H23.7294V22.3333H17.3085ZM17.8669 30.7083H12.2835L12.7023 38.3854L23.7294 42.0145V36.152L18.0064 34.1979L17.8669 30.7083Z" fill="#EEEEEE"/>
</svg>
