<svg width="47" height="47" viewBox="0 0 47 47" fill="none" xmlns="http://www.w3.org/2000/svg">
<path d="M23.4961 0C10.5084 0 5.22967e-06 10.5104 5.22967e-06 23.5C-0.00205459 26.5866 0.604385 29.6434 1.78464 32.4955C2.9649 35.3476 4.69581 37.939 6.8784 40.1216C9.06099 42.3042 11.6524 44.0351 14.5045 45.2154C17.3566 46.3956 20.4134 47.0021 23.5 47C36.4896 47 47 36.4896 47 23.5C46.998 10.5104 36.4015 0 23.4961 0ZM12.4746 28.5427C13.2423 29.5669 14.2684 29.9958 15.7195 29.9958C16.405 29.9958 17.0884 29.9096 17.6857 29.6531C18.285 29.3985 18.9684 29.0538 19.8203 28.5427L22.2153 31.96C20.2511 33.5854 18.0284 34.3531 15.465 34.3531C13.4126 34.3531 11.705 33.9262 10.1677 33.0723C8.67528 32.1919 7.48351 30.8814 6.74842 29.3123C5.98075 27.6869 5.55188 25.8069 5.55188 23.5842C5.55188 21.4496 5.98075 19.4835 6.74646 17.86C7.47757 16.2426 8.66797 14.8759 10.1696 13.9296C11.6208 12.9896 13.4146 12.5627 15.3808 12.5627C16.7496 12.5627 18.0304 12.7331 19.0565 13.16C20.2078 13.6056 21.2762 14.2411 22.2173 15.04L19.8242 18.2869C19.2167 17.8384 18.5572 17.4649 17.86 17.1746C17.2627 16.92 16.4931 16.8338 15.8077 16.8338C12.9035 16.8338 11.4504 19.0546 11.4504 23.5822C11.3662 25.8931 11.7931 27.5146 12.4765 28.5407L12.4746 28.5427ZM35.9746 33.84C35.1208 36.4896 33.838 38.4558 32.0423 39.9069C30.2484 41.362 27.8553 42.1296 24.865 42.3862L24.2677 38.3716C26.2319 38.1131 27.685 37.6862 28.625 37.0007C28.9657 36.7462 29.6511 35.9765 29.6511 35.9765L22.558 13.2462H28.4526L32.5553 30.2504L36.9146 13.2462H42.6388L35.9746 33.84Z" fill="#69D3A7"/>
</svg>
