<svg width="47" height="35" viewBox="0 0 47 35" fill="none" xmlns="http://www.w3.org/2000/svg">
<path d="M36.2544 7.39664L36.6951 6.73456L37.4647 7.19831L37.8055 7.44039C38.628 8.07039 40.3582 9.68038 40.7313 12.352C41.3863 12.2354 42.0473 12.177 42.7082 12.177C44.2769 12.177 45.3315 12.5387 45.9307 12.8391L46.2392 13.0054L46.4389 13.1366L47 13.5916L46.8061 14.1749C46.5048 14.9746 46.0339 15.7007 45.4255 16.3041C44.5736 17.1762 43.0754 18.2058 40.6989 18.3399L40.1761 18.3545H39.7413C38.6544 21.2041 37.1944 24.4153 34.7416 27.297C33.2862 29.0094 31.5599 30.4752 29.6303 31.637C27.3169 32.9997 24.7837 33.9548 22.1424 34.4603C20.2507 34.8249 18.3295 35.0057 16.4054 34.9999C12.1459 34.9999 8.38588 34.1599 6.07403 32.6899C4.00893 31.3803 2.42265 29.2424 1.35632 26.3403C0.423134 23.6885 -0.0351905 20.8949 0.0021061 18.0862C-0.00272718 17.7261 0.122665 17.3762 0.355515 17.1C0.588365 16.8239 0.913232 16.6398 1.27113 16.5812L1.47088 16.5666H32.4327L32.7029 16.5462L33.1406 16.4995C33.8926 16.4004 35.0383 16.1787 35.8432 15.712C34.8797 14.1283 34.6065 12.2762 35.0559 10.3045C35.2441 9.48211 35.5404 8.68781 35.9372 7.94205L36.2544 7.39664ZM8.48869 11.0366L8.6062 11.057C8.65987 11.077 8.70819 11.1089 8.74741 11.1504C8.78664 11.1919 8.81572 11.2418 8.83239 11.2962L8.85001 11.4129V15.2483L8.83239 15.3679C8.81542 15.4226 8.78589 15.4727 8.74614 15.5142C8.70638 15.5557 8.65747 15.5875 8.60326 15.607L8.48869 15.6245H4.34087C4.26356 15.6235 4.18859 15.5981 4.1268 15.5519C4.06501 15.5058 4.01962 15.4413 3.99718 15.3679L3.97661 15.2512V11.41L3.99718 11.2933C4.01375 11.238 4.0431 11.1873 4.08288 11.1453C4.12265 11.1033 4.17177 11.0711 4.22631 11.0512L4.34087 11.0337L8.48869 11.0366ZM14.2081 11.0366L14.3227 11.057C14.3769 11.0766 14.4258 11.1084 14.4656 11.1499C14.5053 11.1914 14.5348 11.2415 14.5518 11.2962L14.5694 11.4129V15.2483L14.5489 15.3679C14.5319 15.4226 14.5024 15.4727 14.4626 15.5142C14.4229 15.5557 14.3739 15.5875 14.3197 15.607L14.2052 15.6245H10.0573C9.98016 15.623 9.9054 15.5975 9.8437 15.5514C9.78199 15.5053 9.73649 15.4411 9.71365 15.3679L9.69309 15.2541V11.4129C9.69246 11.3348 9.71611 11.2585 9.7608 11.1943C9.80548 11.1301 9.86904 11.0811 9.94278 11.0541L10.0573 11.0337L14.2081 11.0366ZM20.0127 11.0366L20.1273 11.057C20.1809 11.077 20.2293 11.1089 20.2685 11.1504C20.3077 11.1919 20.3368 11.2418 20.3535 11.2962L20.374 11.4129V15.2483L20.3535 15.3679C20.3365 15.4226 20.307 15.4727 20.2672 15.5142C20.2275 15.5557 20.1786 15.5875 20.1243 15.607L20.0098 15.6245H15.8619C15.7846 15.6235 15.7097 15.5981 15.6479 15.5519C15.5861 15.5058 15.5407 15.4413 15.5183 15.3679L15.5006 15.2512V11.41L15.5183 11.2933C15.5348 11.238 15.5642 11.1873 15.604 11.1453C15.6437 11.1033 15.6928 11.0711 15.7474 11.0512L15.8619 11.0337L20.0127 11.0366ZM25.7468 11.0366L25.8614 11.057C25.9156 11.0766 25.9645 11.1084 26.0043 11.1499C26.044 11.1914 26.0735 11.2415 26.0905 11.2962L26.1111 11.4129V15.2483C26.1117 15.3263 26.0881 15.4026 26.0434 15.4669C25.9987 15.5311 25.9351 15.58 25.8614 15.607L25.7439 15.6245H21.599C21.5217 15.6235 21.4467 15.5981 21.3849 15.5519C21.3231 15.5058 21.2777 15.4413 21.2553 15.3679L21.2377 15.2512V11.41L21.2553 11.2933C21.2719 11.238 21.3012 11.1873 21.341 11.1453C21.3808 11.1033 21.4299 11.0711 21.4844 11.0512L21.6019 11.0337H25.7497L25.7468 11.0366ZM31.5338 11.0366L31.6484 11.057C31.7026 11.0766 31.7515 11.1084 31.7912 11.1499C31.831 11.1914 31.8605 11.2415 31.8775 11.2962L31.8951 11.4129V15.2483C31.8957 15.3263 31.8721 15.4026 31.8274 15.4669C31.7827 15.5311 31.7192 15.58 31.6454 15.607L31.5309 15.6245H27.383C27.3057 15.6235 27.2307 15.5981 27.169 15.5519C27.1072 15.5058 27.0618 15.4413 27.0393 15.3679L27.0217 15.2512V11.41L27.0393 11.2933C27.0559 11.238 27.0853 11.1873 27.125 11.1453C27.1648 11.1033 27.2139 11.0711 27.2685 11.0512L27.386 11.0337H31.5309L31.5338 11.0366ZM14.2022 5.51831L14.3197 5.53873C14.3731 5.55837 14.4212 5.58987 14.4604 5.63082C14.4996 5.67177 14.5289 5.72108 14.5459 5.77498L14.5665 5.89456V9.72996C14.5671 9.808 14.5435 9.88434 14.4988 9.94854C14.4541 10.0127 14.3905 10.0617 14.3168 10.0887L14.2022 10.1091H10.0573C9.97941 10.1073 9.9041 10.0808 9.84231 10.0336C9.78052 9.98643 9.73546 9.92094 9.71365 9.84663L9.69309 9.72996V5.89456C9.69307 5.81701 9.71699 5.74133 9.76164 5.6777C9.80629 5.61408 9.86951 5.56557 9.94278 5.53873L10.0573 5.51831H14.2022ZM20.0068 5.51831L20.1243 5.53873C20.1777 5.55837 20.2258 5.58987 20.265 5.63082C20.3042 5.67177 20.3335 5.72108 20.3505 5.77498L20.3711 5.89456V9.72996C20.3717 9.808 20.3481 9.88434 20.3034 9.94854C20.2587 10.0127 20.1951 10.0617 20.1214 10.0887L20.0068 10.1091H15.8619C15.784 10.1073 15.7087 10.0808 15.6469 10.0336C15.5851 9.98643 15.5401 9.92094 15.5183 9.84663L15.5006 9.72996V5.89456L15.5183 5.77789C15.5352 5.72315 15.5647 5.67307 15.6045 5.63157C15.6443 5.59007 15.6932 5.55829 15.7474 5.53873L15.8619 5.51831H20.0068ZM25.7439 5.51831C25.9025 5.51831 26.0376 5.62623 26.0876 5.77498L26.1081 5.89456V9.72996C26.1088 9.808 26.0851 9.88434 26.0404 9.94854C25.9957 10.0127 25.9322 10.0617 25.8584 10.0887L25.7409 10.1091H21.599C21.5211 10.1073 21.4457 10.0808 21.3839 10.0336C21.3222 9.98643 21.2771 9.92094 21.2553 9.84663L21.2377 9.72996V5.89456L21.2553 5.77789C21.2723 5.72315 21.3018 5.67307 21.3415 5.63157C21.3813 5.59007 21.4302 5.55829 21.4844 5.53873L21.6019 5.51831H25.7497H25.7439ZM25.7439 0C25.9025 0 26.0376 0.107916 26.0876 0.256666L26.1081 0.373332V4.21165C26.1088 4.28969 26.0851 4.36603 26.0404 4.43023C25.9957 4.49444 25.9322 4.54339 25.8584 4.5704L25.7409 4.5879H21.599C21.5217 4.58687 21.4467 4.56144 21.3849 4.5153C21.3231 4.46916 21.2777 4.40469 21.2553 4.33123L21.2377 4.21457V0.373332L21.2553 0.256666C21.2723 0.201926 21.3018 0.151839 21.3415 0.110341C21.3813 0.0688425 21.4302 0.0370634 21.4844 0.0175001L21.599 0H25.7468H25.7439Z" fill="#2396ED"/>
</svg>
