<svg width="47" height="28" viewBox="0 0 47 28" fill="none" xmlns="http://www.w3.org/2000/svg">
<path d="M47 26.5381C46.316 26.7969 45.5609 26.7963 44.8772 26.5365C44.1936 26.2768 43.6286 25.7758 43.289 25.1281L36.5327 15.7849L35.5535 14.4787L27.7143 25.1399C27.3951 25.7604 26.8608 26.2434 26.2113 26.4986C25.5619 26.7537 24.8417 26.7636 24.1854 26.5264L34.2865 12.9747L24.8904 0.733203C25.566 0.489733 26.3049 0.486506 26.9826 0.724063C27.6604 0.961621 28.2355 1.42545 28.6113 2.03745L35.6143 11.4962L42.6564 2.07662C42.9781 1.46716 43.5126 0.997163 44.1581 0.755976C44.8037 0.514789 45.5154 0.519229 46.1579 0.768453L42.5115 5.60749L37.5726 12.0367C37.4354 12.159 37.3257 12.309 37.2505 12.4767C37.1754 12.6445 37.1365 12.8262 37.1365 13.01C37.1365 13.1938 37.1754 13.3755 37.2505 13.5432C37.3257 13.711 37.4354 13.8609 37.5726 13.9833L46.9804 26.5401L47 26.5381ZM0.00394016 12.8063L0.82644 8.74278C3.08636 0.707746 12.2984 -2.63513 18.6355 2.33904C22.3466 5.25499 23.2728 9.38316 23.0907 14.0362H2.18552C1.84673 22.3454 7.84314 27.3626 15.51 24.7992C16.7529 24.3518 17.8654 23.6031 18.7478 22.6201C19.6303 21.6372 20.2551 20.4507 20.5664 19.167C20.9718 17.8627 21.6396 17.6395 22.8655 18.0155C22.6612 19.6064 22.0988 21.1303 21.2207 22.4725C20.3425 23.8147 19.1713 24.9403 17.7954 25.7646C15.5226 27.0078 12.9149 27.5006 10.3452 27.1724C7.77543 26.8442 5.37525 25.712 3.48781 23.9375C1.62158 21.837 0.493672 19.1836 0.276148 16.3822C0.276148 15.922 0.119482 15.4912 0.0137318 15.078C0.00419872 14.3215 -0.000370824 13.5649 2.34927e-05 12.8083L0.00394016 12.8063ZM2.21098 12.2462H21.1167C20.9992 6.22241 17.1981 1.94933 12.128 1.91016C6.48406 1.83183 2.44598 6.01091 2.19727 12.2188L2.21098 12.2462Z" fill="white"/>
</svg>
