<svg width="51" height="70" viewBox="0 0 51 70" fill="none" xmlns="http://www.w3.org/2000/svg">
<path d="M0 56.0957L0.421968 55.5074L20.329 17.7437L20.3712 17.344L11.5967 0.862435C11.4361 0.561043 11.1847 0.31779 10.8782 0.16709C10.5718 0.0163912 10.2256 -0.0341244 9.88887 0.02269C9.5521 0.0795045 9.24172 0.240772 9.00164 0.483679C8.76156 0.726585 8.60394 1.03883 8.55107 1.37624L0 56.0957Z" fill="#FFC24A"/>
<path d="M0.248535 55.6486L0.566252 55.0281L20.2672 17.6565L11.5151 1.1104C11.3708 0.822654 11.1371 0.589415 10.8491 0.44563C10.561 0.301845 10.2342 0.255256 9.91746 0.312842C9.60073 0.370429 9.31119 0.529091 9.09221 0.765058C8.87323 1.00103 8.73661 1.30159 8.7028 1.62173L0.248535 55.6486Z" fill="#FFA712"/>
<path d="M26.7677 29.8092L33.3008 23.1073L26.7652 10.6444C26.6214 10.3762 26.4075 10.152 26.1463 9.99567C25.8852 9.83938 25.5865 9.75684 25.2821 9.75684C24.9778 9.75684 24.6791 9.83938 24.418 9.99567C24.1568 10.152 23.9429 10.3762 23.7991 10.6444L20.3066 17.3016V17.87L26.7677 29.8092Z" fill="#F4BD62"/>
<path d="M26.651 29.5362L33.0029 23.0329L26.651 10.9199C26.547 10.6577 26.3694 10.4312 26.1396 10.2677C25.9098 10.1041 25.6376 10.0106 25.3558 9.99822C25.0741 9.98589 24.7947 10.0553 24.5515 10.1982C24.3083 10.341 24.1116 10.5512 23.9851 10.8033L20.4753 17.5771L20.3711 17.9221L26.651 29.5362Z" fill="#FFA50E"/>
<path d="M0.00488281 56.0982L0.19601 55.9046L0.888535 55.6241L26.3556 30.2514L26.6783 29.3727L20.3264 17.2646L0.00488281 56.0982Z" fill="#F6820C"/>
<path d="M27.5819 68.8942L50.6362 56.0391L44.0486 15.5028C44.0013 15.217 43.8763 14.9498 43.6872 14.7305C43.498 14.5111 43.2521 14.3481 42.9764 14.2594C42.7007 14.1707 42.4059 14.1596 42.1243 14.2274C41.8427 14.2953 41.5853 14.4394 41.3802 14.644L0 56.0962L22.9179 68.8918C23.6304 69.2893 24.4327 69.4981 25.2486 69.4981C26.0645 69.4981 26.8669 69.2893 27.5794 68.8918" fill="#FDE068"/>
<path d="M50.4256 55.9317L43.8925 15.7007C43.881 15.4274 43.7886 15.1637 43.6271 14.9428C43.4656 14.722 43.2423 14.5541 42.9853 14.4603C42.7283 14.3665 42.4493 14.351 42.1835 14.4159C41.9177 14.4807 41.6772 14.6229 41.4923 14.8245L0.248535 56.0186L22.9132 68.6777C23.6201 69.072 24.416 69.279 25.2254 69.279C26.0347 69.279 26.8307 69.072 27.5375 68.6777L50.4256 55.9317Z" fill="#FCCA3F"/>
<path d="M27.5819 68.5064C26.8694 68.9039 26.067 69.1127 25.2511 69.1127C24.4352 69.1127 23.6328 68.9039 22.9203 68.5064L0.188644 55.9019L0 56.0955L22.9179 68.8911C23.6304 69.2887 24.4327 69.4974 25.2486 69.4974C26.0645 69.4974 26.8669 69.2887 27.5794 68.8911L50.6362 56.0384L50.5792 55.6909L27.5819 68.5064Z" fill="#EEAB37"/>
</svg>
