<svg width="39" height="54" viewBox="0 0 39 54" fill="none" xmlns="http://www.w3.org/2000/svg">
<path d="M0 43.1812L0.324821 42.7284L15.6488 13.6587L15.6813 13.3511L8.92688 0.663883C8.80322 0.431878 8.60975 0.244627 8.37383 0.128623C8.1379 0.0126176 7.87148 -0.0262682 7.61224 0.0174663C7.353 0.0612008 7.11407 0.185341 6.92927 0.372325C6.74446 0.55931 6.62312 0.79967 6.58243 1.0594L0 43.1812Z" fill="#FFC24A"/>
<path d="M0.191406 42.8371L0.435978 42.3594L15.6014 13.5916L8.86416 0.85479C8.75306 0.633286 8.57318 0.453744 8.35146 0.343061C8.12975 0.232379 7.87814 0.196515 7.63433 0.240844C7.39052 0.285173 7.16764 0.407308 6.99907 0.58895C6.83051 0.770592 6.72534 1.00196 6.69932 1.2484L0.191406 42.8371Z" fill="#FFA712"/>
<path d="M20.6054 22.9465L25.6345 17.7875L20.6035 8.19383C20.4928 7.98736 20.3281 7.81478 20.1271 7.69447C19.9261 7.57416 19.6962 7.51062 19.4619 7.51062C19.2276 7.51062 18.9977 7.57416 18.7966 7.69447C18.5956 7.81478 18.4309 7.98736 18.3202 8.19383L15.6318 13.3184V13.7559L20.6054 22.9465Z" fill="#F4BD62"/>
<path d="M20.5153 22.7364L25.4048 17.7303L20.5153 8.40597C20.4352 8.20414 20.2985 8.02976 20.1216 7.90387C19.9447 7.77798 19.7352 7.70594 19.5183 7.69645C19.3014 7.68696 19.0864 7.74041 18.8991 7.85037C18.7119 7.96033 18.5605 8.1221 18.4632 8.31616L15.7614 13.5305L15.6812 13.7961L20.5153 22.7364Z" fill="#FFA50E"/>
<path d="M0.00390625 43.1831L0.151032 43.0341L0.684122 42.8182L20.2881 23.2868L20.5365 22.6104L15.647 13.2899L0.00390625 43.1831Z" fill="#F6820C"/>
<path d="M21.2319 53.0333L38.9787 43.1377L33.9076 11.9338C33.8713 11.7138 33.775 11.5081 33.6294 11.3392C33.4838 11.1704 33.2945 11.0449 33.0823 10.9766C32.8701 10.9083 32.6431 10.8998 32.4263 10.952C32.2096 11.0043 32.0114 11.1152 31.8536 11.2727L0 43.1817L17.6417 53.0314C18.1901 53.3375 18.8078 53.4981 19.4358 53.4981C20.0639 53.4981 20.6815 53.3375 21.23 53.0314" fill="#FDE068"/>
<path d="M38.8166 43.055L33.7876 12.0861C33.7787 11.8757 33.7076 11.6727 33.5833 11.5027C33.459 11.3327 33.287 11.2035 33.0892 11.1312C32.8914 11.059 32.6766 11.0471 32.472 11.097C32.2674 11.1469 32.0823 11.2564 31.9399 11.4116L0.191406 43.1219L17.6382 52.8666C18.1823 53.1701 18.795 53.3295 19.418 53.3295C20.0411 53.3295 20.6537 53.1701 21.1979 52.8666L38.8166 43.055Z" fill="#FCCA3F"/>
<path d="M21.2319 52.7347C20.6835 53.0407 20.0658 53.2014 19.4377 53.2014C18.8097 53.2014 18.192 53.0407 17.6436 52.7347L0.145214 43.032L0 43.1811L17.6417 53.0308C18.1901 53.3369 18.8078 53.4975 19.4358 53.4975C20.0639 53.4975 20.6815 53.3369 21.23 53.0308L38.9787 43.1371L38.9347 42.8696L21.2319 52.7347Z" fill="#EEAB37"/>
</svg>
