<svg width="47" height="47" viewBox="0 0 47 47" fill="none" xmlns="http://www.w3.org/2000/svg">
<path d="M46.0105 21.15L25.85 0.989474C25.2316 0.371053 24.3658 0 23.5 0C22.6342 0 21.7684 0.371053 21.15 0.989474L16.8211 5.31842L21.8921 10.3895C22.3868 10.1421 22.8816 10.0184 23.5 10.0184C25.6026 10.0184 27.2105 11.6263 27.2105 13.7289C27.2105 14.3474 27.0868 14.8421 26.8395 15.3368L31.7868 20.2842C32.2816 20.0368 32.7763 19.9132 33.3947 19.9132C35.4974 19.9132 37.1053 21.5211 37.1053 23.6237C37.1053 25.7263 35.4974 27.3342 33.3947 27.3342C31.2921 27.3342 29.6842 25.7263 29.6842 23.6237C29.6842 23.0053 29.8079 22.5105 30.0553 22.0158L25.1079 17.0684C24.9842 17.0684 24.8605 17.1921 24.7368 17.1921V30.0553C26.2211 30.55 27.2105 31.9105 27.2105 33.5184C27.2105 35.6211 25.6026 37.2289 23.5 37.2289C21.3974 37.2289 19.7895 35.6211 19.7895 33.5184C19.7895 31.9105 20.7789 30.55 22.2632 30.0553V17.0684C20.7789 16.5737 19.7895 15.2132 19.7895 13.6053C19.7895 12.9868 19.9132 12.4921 20.1605 11.9974L15.0895 6.92632L0.989474 21.15C0.371053 21.7684 0 22.6342 0 23.5C0 24.3658 0.371053 25.2316 0.989474 25.85L21.15 46.0105C21.7684 46.629 22.6342 47 23.5 47C24.3658 47 25.2316 46.629 25.85 46.0105L46.0105 25.85C46.629 25.2316 47 24.3658 47 23.5C47 22.6342 46.629 21.7684 46.0105 21.15Z" fill="#F4511E"/>
</svg>
