<svg width="47" height="53" viewBox="0 0 47 53" fill="none" xmlns="http://www.w3.org/2000/svg">
<path d="M28.2085 6.26894L38.5616 12.2465C38.8747 11.9193 39.2387 11.63 39.6504 11.3909C41.9945 10.0433 44.9843 10.8434 46.3459 13.1876C47.6934 15.5317 46.8933 18.5215 44.5492 19.8831C44.0385 20.1766 43.4964 20.3683 42.947 20.4642V32.2891C43.4895 32.386 44.0245 32.5765 44.5289 32.8664C46.8848 34.2267 47.6841 37.2137 46.3239 39.5556C44.9776 41.8975 41.9766 42.6968 39.6347 41.3506C39.0537 41.0165 38.5676 40.5807 38.1856 40.0782L28.0189 45.9482C28.2654 46.5334 28.4016 47.1768 28.4016 47.8526C28.4016 50.5484 26.2112 52.7528 23.5013 52.7528C20.7915 52.7528 18.6011 50.5624 18.6011 47.8526C18.6011 47.3186 18.6862 46.8047 18.8435 46.3238L8.5602 40.3866C8.22364 40.7621 7.82304 41.092 7.36296 41.3592C5.0048 42.7068 2.01499 41.9067 0.667466 39.5625C-0.680055 37.2184 0.120036 34.2286 2.46416 32.8671C2.82108 32.6619 3.19297 32.5065 3.57181 32.3988V20.3549C3.18814 20.247 2.81166 20.0905 2.45081 19.8831C0.106688 18.5355 -0.693402 15.5317 0.654118 13.1876C2.00164 10.8434 5.00549 10.0433 7.34961 11.3909C7.68377 11.585 7.98654 11.8121 8.2562 12.0658L18.729 6.01914C18.6454 5.65985 18.6011 5.28528 18.6011 4.90021C18.6011 2.19035 20.7915 0 23.5013 0C26.2112 0 28.4016 2.19035 28.4016 4.90021C28.4016 5.37544 28.3342 5.83468 28.2085 6.26894ZM27.1249 8.20176C27.0156 8.3217 26.9004 8.43617 26.7798 8.54472L40.581 32.4484C40.6309 32.4325 40.681 32.4173 40.7313 32.4029V20.3422C39.5578 20.0024 38.5096 19.2273 37.8537 18.0864C37.1393 16.8436 37.0285 15.4193 37.4315 14.1524L27.1249 8.20176ZM19.917 8.24436C19.8462 8.16848 19.7778 8.09035 19.7119 8.01009L9.48601 13.9142C9.98308 15.2386 9.90587 16.765 9.14631 18.0864C8.40197 19.3812 7.15225 20.2049 5.7875 20.4558V32.2927C5.86078 32.3061 5.93373 32.3211 6.0063 32.3377L19.917 8.24436ZM24.8399 9.61598C24.4146 9.73615 23.9656 9.80043 23.5013 9.80043C22.8879 9.80043 22.3011 9.68818 21.7603 9.48307L8.00339 33.31C8.45532 33.6764 8.84968 34.1301 9.15966 34.6637C9.36483 35.0207 9.52022 35.3926 9.62795 35.7714H37.3712C37.4788 35.3915 37.6343 35.0188 37.8397 34.6614C38.0735 34.2548 38.3571 33.8947 38.6784 33.5843L24.8399 9.61598ZM26.9255 44.3447L37.3415 38.3309C37.3123 38.2173 37.2871 38.1026 37.2661 37.9871H9.734C9.7059 38.1412 9.67048 38.2939 9.62787 38.4446L19.9928 44.429C20.8823 43.5176 22.1248 42.9524 23.5013 42.9524C24.835 42.9524 26.0427 43.4829 26.9255 44.3447Z" fill="#E535AB"/>
</svg>
