<svg width="47" height="53" viewBox="0 0 47 53" fill="none" xmlns="http://www.w3.org/2000/svg">
<path d="M46.75 0H0L4.125 46.75L23.375 52.25L42.625 46.75L46.75 0Z" fill="#E65100"/>
<path d="M23.375 4.125V47.9875L38.775 43.5875L42.2125 4.125H23.375Z" fill="#FF6D00"/>
<path d="M23.375 27.5V22H35.2L34.2375 37.8125L23.375 41.3875V35.6125L29.0125 33.6875L29.425 27.5H23.375ZM35.6125 16.5L36.025 11H23.375V16.5H35.6125Z" fill="white"/>
<path d="M23.3748 35.6125V41.3875L12.5123 37.8125L11.9623 30.25H17.4623L17.7373 33.6875L23.3748 35.6125ZM16.6373 16.5H23.3748V11H10.8623L11.8248 27.5H23.3748V22H17.0498L16.6373 16.5Z" fill="#EEEEEE"/>
</svg>
