<svg width="47" height="47" viewBox="0 0 47 47" fill="none" xmlns="http://www.w3.org/2000/svg">
<path d="M0 5.22222C0 2.33825 2.33825 0 5.22222 0H41.7778C44.6618 0 47 2.33825 47 5.22222V41.7778C47 44.6618 44.6618 47 41.7778 47H5.22222C2.33825 47 0 44.6618 0 41.7778V5.22222Z" fill="#FF5722"/>
<path d="M3.91675 3.91663V43.0833H43.0834V3.91663H3.91675ZM23.0967 32.6388L22.1018 28.8397H16.9893L15.9957 32.6388H12.0308L17.8314 14.0752H21.2611L27.1008 32.6388H23.0967ZM32.4431 32.6388H28.8228V18.8443H32.4431V32.6388ZM32.0541 16.651C31.7003 17.0166 31.2237 17.1993 30.6193 17.1993C30.0148 17.1993 29.5383 17.0166 29.1845 16.651C28.8307 16.2855 28.6557 15.8259 28.6557 15.2737C28.6557 14.7123 28.8346 14.254 29.191 13.8963C29.5474 13.5386 30.0252 13.361 30.6193 13.361C31.2133 13.361 31.6898 13.5399 32.0476 13.8963C32.4053 14.2527 32.5828 14.7123 32.5828 15.2737C32.5828 15.8259 32.4066 16.2855 32.0541 16.651Z" fill="#1C0802"/>
<path d="M17.8066 25.7156H21.2742L19.5404 19.099L17.8066 25.7156Z" fill="#1C0802"/>
</svg>
