<svg width="47" height="47" viewBox="0 0 47 47" fill="none" xmlns="http://www.w3.org/2000/svg">
<path d="M0 47V0H47V47H0Z" fill="#F7DF1E"/>
<path d="M30.73 35.1808C31.6334 36.6483 32.6152 38.0544 34.695 38.0544C36.4418 38.0544 37.3583 37.1862 37.3583 35.9851C37.3583 34.5476 36.4105 34.0372 34.4887 33.2003L33.4351 32.7512C30.3945 31.4613 28.3722 29.845 28.3722 26.431C28.3722 23.2846 30.7809 20.8902 34.5448 20.8902C37.2251 20.8902 39.1508 21.8185 40.5399 24.2494L37.2578 26.3474C36.5358 25.0576 35.7551 24.5497 34.5448 24.5497C33.3098 24.5497 32.5277 25.3291 32.5277 26.3474C32.5277 27.606 33.3111 28.1152 35.1193 28.8946L36.1728 29.3437C39.7566 30.8699 41.7776 32.4287 41.7776 35.9328C41.7776 39.7085 38.7957 41.7778 34.7929 41.7778C30.8775 41.7778 28.6542 39.8129 27.4165 37.3807L30.73 35.1808ZM15.6038 35.2879C16.2644 36.4707 17.2684 37.3807 18.7123 37.3807C20.0936 37.3807 20.8887 36.835 20.8887 34.7134V20.8889H25.2401V35.3819C25.2401 39.7777 22.6904 41.7778 18.9669 41.7778C15.6025 41.7778 13.1742 39.4983 12.1846 37.3807L15.6038 35.2879Z" fill="#000001"/>
</svg>
