<svg width="31" height="69" viewBox="0 0 31 69" fill="none" xmlns="http://www.w3.org/2000/svg">
<path d="M17.0191 69L15.1823 68.3722C15.1823 68.3722 15.4066 59.0083 12.0458 58.3364C9.80608 55.7373 12.4051 -51.8843 20.4697 57.9776C20.4697 57.9776 17.6915 59.3662 17.1987 61.7413C16.6607 64.0714 17.0191 69 17.0191 69Z" fill="#A6A385"/>
<path d="M18.0055 59.9494C18.0055 59.9494 34.0909 49.3751 30.3267 27.3754C26.6978 11.3808 18.14 6.13854 17.199 4.12216C16.1687 2.6884 15.1826 0.179688 15.1826 0.179688L15.8551 44.6704C15.8551 44.7155 14.4655 58.2908 18.0055 59.9494Z" fill="#499D4A"/>
<path d="M14.2419 60.5315C14.2419 60.5315 -0.857903 50.2262 0.038378 32.0806C0.889505 13.9346 11.5531 5.01839 13.6142 3.40548C14.9586 1.97172 15.0033 1.43376 15.0931 0C16.034 2.01639 15.8549 30.1541 15.9889 33.4692C16.3919 46.2386 15.2722 58.1126 14.2419 60.5315Z" fill="#58AA50"/>
</svg>
