<svg width="47" height="19" viewBox="0 0 47 19" fill="none" xmlns="http://www.w3.org/2000/svg">
<path d="M17.5112 13.6428V18.7822L21.6116 18.777V13.648L19.5645 15.7064L17.5112 13.6428Z" fill="#B71C1C"/>
<path d="M46.8576 4.86199C46.6759 4.6351 45.9952 4.49856 45.9952 4.49856L45.1781 6.13296L45.2684 4.31685C45.2684 4.31685 40.319 2.31902 36.3695 1.36528C32.4201 0.411532 29.6143 0.0398908 28.1072 0.00395857C27.0169 -0.0227339 24.9277 0.0943036 24.9277 0.0943036L26.6986 1.77388C26.6986 1.77388 24.4739 0.865305 23.6567 0.548075C22.8395 0.230845 21.5686 0.229819 20.932 0.184647C20.2966 0.139475 19.7514 0.411533 19.7514 0.411533C19.7514 0.411533 19.1611 0.865304 20.5234 3.90722C21.6404 6.40194 24.3415 7.97782 25.2788 8.46547C19.2042 7.14728 18.5256 1.2739 18.5256 1.2739C18.5256 1.2739 14.8266 1.23592 9.53538 3.09002C3.55626 5.18538 0 9.22005 0 9.22005C0 9.22005 4.72252 7.63082 8.71817 8.72008C12.7138 9.80934 14.3616 12.609 14.3616 12.609L14.4714 9.52188H17.4856L19.7966 12.3071L21.6014 9.55884H24.6515C24.6515 9.55884 24.6669 9.55884 24.6885 9.55781V15.6961C24.6885 15.6961 26.7561 13.9867 28.1503 13.3061C30.0116 12.3975 34.3255 12.6706 34.3255 12.6706C34.3255 12.6706 34.2567 12.188 34.0021 11.6778C33.6407 10.9551 34.5904 10.7179 34.5904 10.7179C34.5904 10.7179 43.0888 8.85662 44.0416 8.67491C44.9953 8.49319 45.676 8.08459 45.9029 7.85771C46.1297 7.63082 46.7652 6.04159 46.9018 5.85988C47.0393 5.67919 47.0393 5.08888 46.8576 4.86199ZM20.7955 1.7287C21.0224 1.36528 21.7041 1.22873 22.7482 1.7287C23.9801 2.31799 25.4728 4.27167 25.4728 4.27167L24.2019 3.68136L24.8374 4.81682L23.7019 4.18133L24.7008 5.63402L24.0202 5.4523L24.9287 6.95016C20.9772 4.68028 20.5686 2.09213 20.7955 1.7287ZM37.9588 3.95342L37.2781 4.45236C37.2781 4.45236 34.5534 4.81579 33.8276 4.77062C33.1007 4.72545 32.647 3.63516 32.647 3.63516L31.1491 2.72659L37.9588 3.95342ZM32.8276 10.3103C32.3277 10.7189 32.7825 11.7178 32.7825 11.7178C32.1018 11.2189 31.2836 10.2652 32.0104 9.72002C32.7373 9.17488 38.0491 8.49422 38.0491 8.49422C38.0491 8.49422 33.3266 9.90173 32.8276 10.3103Z" fill="#B71C1C"/>
</svg>
