<svg width="47" height="47" viewBox="0 0 47 47" fill="none" xmlns="http://www.w3.org/2000/svg">
<path d="M34.8803 44.0631C34.7055 44.1556 34.7202 44.185 34.8876 44.0998C34.9419 44.0778 34.9875 44.047 35.0271 44.0102C35.0271 43.9794 35.0271 43.9794 34.8803 44.0631ZM35.2327 43.8722C35.149 43.9412 35.149 43.9412 35.2489 43.8957C35.3018 43.8648 35.3488 43.8355 35.3488 43.8266C35.3488 43.787 35.3253 43.7958 35.2327 43.8722ZM35.4619 43.7341C35.3781 43.8031 35.3781 43.8031 35.478 43.7576C35.5324 43.7268 35.5779 43.6945 35.5779 43.6871C35.5779 43.6504 35.5544 43.6577 35.4619 43.7341ZM35.6939 43.5975C35.6102 43.6666 35.6102 43.6666 35.7071 43.6196C35.7615 43.5902 35.807 43.5593 35.807 43.5505C35.807 43.5138 35.7835 43.5212 35.6939 43.5975ZM36.0068 43.3904C35.8467 43.4977 35.7909 43.5667 35.9377 43.4903C36.0361 43.4301 36.2036 43.2979 36.1742 43.2979C36.111 43.3214 36.0582 43.3611 36.0053 43.3904H36.0068ZM21.9615 0.010795C21.8543 0.0181385 21.5327 0.0475126 21.2507 0.0710119C14.571 0.676118 8.32168 4.27151 4.36058 9.80999C2.17074 12.8458 0.749039 16.3722 0.212962 20.0748C0.0234993 21.3672 0 21.7491 0 23.5012C0 25.2519 0.0234993 25.6279 0.212962 26.9204C1.4922 35.7488 7.77238 43.1599 16.285 45.9063C17.8168 46.3954 19.4221 46.7332 21.2507 46.9403C21.9615 47.0167 25.0355 47.0167 25.7464 46.9403C28.907 46.5878 31.5757 45.8079 34.2164 44.4611C34.6218 44.2555 34.6981 44.2012 34.6438 44.1556C33.3513 42.4505 32.0824 40.7438 30.8119 39.0225L27.0565 33.9511L22.3522 26.9821C20.7836 24.6498 19.2092 22.3233 17.6098 20.0145C17.5936 20.0145 17.573 23.112 17.5642 26.8896C17.5481 33.5061 17.5481 33.7748 17.4644 33.9276C17.3806 34.1112 17.2426 34.2639 17.059 34.3491C16.9136 34.4181 16.7829 34.4328 16.0882 34.4328H15.2936L15.0865 34.3036C14.9573 34.2199 14.8501 34.1038 14.781 33.9672L14.6812 33.7601L14.6885 24.5499L14.7047 15.3397L14.8501 15.1561C14.9426 15.043 15.0572 14.9505 15.1864 14.8814C15.3788 14.7889 15.4552 14.7742 16.2497 14.7742C17.1824 14.7742 17.3366 14.8109 17.5819 15.0797C19.4853 17.9172 21.3829 20.7621 23.2496 23.6158C26.303 28.2452 30.4712 34.5621 32.52 37.661L36.2461 43.2994L36.4297 43.1775C38.2201 41.9834 39.8489 40.5617 41.2544 38.9403C44.2153 35.5505 46.1364 31.3808 46.787 26.9307C46.9765 25.6382 47 25.2549 47 23.5042C47 21.752 46.9765 21.3775 46.787 20.085C45.5078 11.2567 39.2276 3.84558 30.715 1.09764C29.1229 0.593871 27.4853 0.250194 25.8272 0.0739493C25.3821 0.0284195 22.3449 -0.0259226 21.963 0.0137324L21.9615 0.010795ZM31.5771 14.2234C31.7989 14.3292 31.9663 14.5289 32.0427 14.7581C32.0824 14.8814 32.0897 17.4355 32.0824 23.1884L32.0662 31.4484L30.6137 29.216L29.1523 26.9821V20.9854C29.1523 17.0977 29.1685 14.9181 29.189 14.8109C29.2581 14.5657 29.4255 14.36 29.6487 14.2308C29.8308 14.1383 29.9013 14.1309 30.6284 14.1309C31.3084 14.1309 31.4244 14.1383 31.5771 14.2234Z" fill="white"/>
</svg>
