<svg width="47" height="53" viewBox="0 0 47 53" fill="none" xmlns="http://www.w3.org/2000/svg">
<path d="M0.374275 39.76C0.61488 40.1878 0.962421 40.5086 1.39016 40.7492L21.9753 52.619C22.8308 53.127 23.8734 53.127 24.7021 52.619L45.2873 40.7492C46.1427 40.268 46.6507 39.359 46.6507 38.3699V14.6301C46.6507 13.641 46.1427 12.732 45.2873 12.2508L24.7021 0.380958C23.8467 -0.126986 22.804 -0.126986 21.9753 0.380958L1.39016 12.2508C0.507945 12.732 0 13.641 0 14.6301V38.3966C0 38.8778 0.106936 39.3323 0.374275 39.76Z" fill="#009639"/>
<path d="M16.7357 35.5628C16.7357 37.0332 15.5594 38.2094 14.089 38.2094C12.6187 38.2094 11.4424 37.0332 11.4424 35.5628V17.4105C11.4424 15.9936 12.6989 14.844 14.4366 14.844C15.6931 14.844 17.1634 15.3519 18.0457 16.448L18.8477 17.4105L29.9155 30.6437V17.4639C29.9155 15.9936 31.0918 14.8173 32.5622 14.8173C34.0325 14.8173 35.2088 15.9936 35.2088 17.4639V35.6163C35.2088 37.0332 33.9523 38.1827 32.2146 38.1827C30.9581 38.1827 29.4878 37.6748 28.6056 36.5787L16.7357 22.4097V35.5628Z" fill="white"/>
</svg>
