<svg width="47" height="51" viewBox="0 0 47 51" fill="none" xmlns="http://www.w3.org/2000/svg">
<path d="M25.6195 0.539997C24.3364 -0.181616 22.6636 -0.17838 21.3794 0.539997C14.9476 4.08949 8.51572 7.64006 2.08275 11.1879C0.830975 11.8465 -0.0133085 13.1907 0.000158804 14.5859V36.0324C-0.00887967 37.4549 0.878933 38.8121 2.16299 39.4616C4.01074 40.4446 5.80595 41.5274 7.68711 42.445C9.86008 43.5128 12.5787 43.7489 14.7783 42.6354C16.5637 41.7125 17.3568 39.6599 17.3544 37.7736C17.3689 30.6957 17.3568 23.6177 17.36 16.5397C17.4025 16.2251 17.1662 15.8889 16.8231 15.8965C16.0012 15.8835 15.1781 15.8889 14.3562 15.8943C14.0456 15.865 13.7424 16.123 13.7659 16.4352C13.7549 23.4675 13.7681 30.5019 13.7593 37.5353C13.7772 38.5082 13.1199 39.4432 12.1823 39.7718C10.0168 40.5308 3.83589 36.5176 3.83589 36.5176C3.60906 36.4126 3.46502 36.1665 3.48726 35.9221C3.48726 28.8465 3.48836 21.7706 3.48726 14.696C3.45607 14.4108 3.63187 14.1539 3.8938 14.0374C10.3044 10.5089 16.7118 6.97145 23.1224 3.4407C23.3451 3.29208 23.6555 3.29254 23.8776 3.44178C30.2883 6.97145 36.6967 10.5056 43.1084 14.0344C43.3713 14.1506 43.5396 14.4118 43.5128 14.696C43.5117 21.7706 43.515 28.8465 43.5106 35.9212C43.5296 36.1716 43.4002 36.4142 43.1665 36.5241C36.8157 40.0336 30.3926 43.4298 24.0993 47.0413C23.8247 47.1987 23.5136 47.3771 23.2059 47.2036C21.551 46.2882 19.9161 45.3371 18.2666 44.4129C18.0872 44.301 17.8589 44.2529 17.6718 44.3782C16.9323 44.7679 16.2367 45.0835 15.3874 45.4198C14.1947 45.8919 14.3853 46.085 15.461 46.7117C17.39 47.8034 19.3223 48.8907 21.2512 49.9835C22.5212 50.776 24.2274 50.8324 25.5382 50.1001C31.9711 46.555 38.4019 43.0058 44.836 39.4607C46.1166 38.8076 47.0089 37.4558 46.9999 36.0322V14.5859C47.0123 13.219 46.2003 11.8987 44.9863 11.2305C38.5321 7.66367 32.0748 4.10462 25.6195 0.539997Z" fill="#8CC84B"/>
<path d="M35.3256 16.6419C32.8008 15.2912 29.7972 15.2193 26.9914 15.3959C24.9645 15.5962 22.8327 16.1555 21.3559 17.6085C19.8413 19.0691 19.5116 21.4278 20.231 23.3346C20.7466 24.682 22.0443 25.5582 23.3863 26.0217C25.115 26.632 26.9307 26.8207 28.7469 27.0094C30.4035 27.1815 32.0606 27.3538 33.6528 27.846C34.3032 28.0615 35.0606 28.3912 35.2598 29.0989C35.4438 29.937 35.2421 30.9112 34.5617 31.4934C32.4004 33.204 26.3884 32.9419 24.253 31.5955C23.3896 31.022 23.0176 30.0066 22.8663 29.0389C22.8495 28.7374 22.6067 28.4608 22.2793 28.4838C21.4595 28.474 20.6397 28.4762 19.8199 28.4827C19.534 28.4587 19.2366 28.6622 19.2209 28.9541C19.0524 33.3861 23.1228 35.3181 26.9415 35.7435C29.1232 35.9514 31.3529 35.9394 33.5013 35.4712C35.1163 35.1036 36.7356 34.4264 37.8474 33.1825C39.2183 31.6708 39.4878 29.42 38.873 27.5369C38.403 26.1318 37.0597 25.2305 35.6866 24.7668C33.8193 24.1265 31.6063 23.7823 29.915 23.6213C27.4567 23.3872 24.5355 23.4828 23.8397 21.8674C23.5622 21.0216 23.7983 19.9714 24.5756 19.4511C26.6322 18.0561 30.818 18.2414 32.9478 19.2835C33.9257 19.7732 34.4925 20.779 34.7264 21.7944C34.7698 22.0927 34.9704 22.404 35.3157 22.391C36.1299 22.4072 36.9441 22.3953 37.7581 22.3964C38.0377 22.4159 38.3439 22.2581 38.3985 21.9718C38.364 19.8495 37.2803 17.677 35.3256 16.6419Z" fill="#8CC84B"/>
</svg>
