<svg width="47" height="47" viewBox="0 0 47 47" fill="none" xmlns="http://www.w3.org/2000/svg">
<path d="M0 5.22222C0 2.33825 2.33825 0 5.22222 0H41.7778C44.6618 0 47 2.33825 47 5.22222V41.7778C47 44.6618 44.6618 47 41.7778 47H5.22222C2.33825 47 0 44.6618 0 41.7778V5.22222Z" fill="#03A9F4"/>
<path d="M18.2988 17.1993H15.6851V22.9882H18.2609C18.9751 22.9882 19.5273 22.7545 19.919 22.2871C20.3106 21.8197 20.5052 21.1395 20.5052 20.2465C20.5052 19.3196 20.3054 18.5832 19.9059 18.0349C19.5064 17.4866 18.9698 17.2085 18.2988 17.1993Z" fill="#020F16"/>
<path d="M3.9165 3.91663V43.0833H43.0832V3.91663H3.9165ZM22.6708 24.53C21.5924 25.5849 20.0963 26.1111 18.1836 26.1111H15.6848V32.6388H11.9365V14.0752H18.2606C20.0963 14.0752 21.5611 14.6457 22.6525 15.7841C23.744 16.9226 24.291 18.4018 24.291 20.2204C24.291 22.039 23.7505 23.4752 22.6708 24.53ZM34.8347 31.772C33.909 32.52 32.6923 32.8934 31.1883 32.8934C30.1764 32.8934 29.2834 32.6963 28.5106 32.3007C27.7377 31.9051 27.1306 31.3542 26.6932 30.6492C26.2559 29.9442 26.0365 29.183 26.0365 28.3671H29.4662C29.4845 28.995 29.6294 29.4677 29.9062 29.7823C30.183 30.0969 30.6347 30.2536 31.264 30.2536C32.2327 30.2536 32.7171 29.8162 32.7171 28.9402C32.7171 28.6347 32.5708 28.3514 32.2771 28.0929C31.9833 27.8344 31.3332 27.4845 30.3214 27.0419C28.8343 26.4388 27.8121 25.8147 27.2546 25.1672C26.6971 24.5196 26.4191 23.718 26.4191 22.7571C26.4191 21.5495 26.8551 20.5533 27.7259 19.7674C28.5967 18.9814 29.7521 18.5885 31.1869 18.5885C32.6988 18.5885 33.9103 18.9801 34.8203 19.7608C35.7303 20.5416 36.1846 21.5925 36.1846 22.9098H32.5761C32.5761 21.7884 32.11 21.227 31.1739 21.227C30.7914 21.227 30.478 21.3458 30.23 21.5834C29.9819 21.821 29.8605 22.1539 29.8605 22.5782C29.8605 22.8837 29.9963 23.154 30.2691 23.3877C30.542 23.6214 31.1817 23.9556 32.1948 24.389C33.6662 24.9335 34.7041 25.5392 35.3125 26.2064C35.9209 26.8735 36.2238 27.7391 36.2238 28.8005C36.2238 30.0343 35.7603 31.0239 34.8347 31.772Z" fill="#020F16"/>
</svg>
