<svg width="47" height="47" viewBox="0 0 47 47" fill="none" xmlns="http://www.w3.org/2000/svg">
<path fill-rule="evenodd" clip-rule="evenodd" d="M18.492 0C14.804 0 11.8143 2.89477 11.8143 6.46567V10.9419H23.3718V12.1853H6.67766C2.98968 12.1853 0 15.0801 0 18.651V28.3495C0 31.9204 2.98968 34.8151 6.67766 34.8151H10.5301V29.3442C10.5301 25.7734 13.5198 22.8785 17.2079 22.8785H29.5358C32.6564 22.8785 35.186 20.4291 35.186 17.4076V6.46567C35.186 2.89477 32.1965 0 28.5085 0H18.492ZM16.951 7.95775C18.2276 7.95775 19.2625 6.9557 19.2625 5.71964C19.2625 4.48356 18.2276 3.48151 16.951 3.48151C15.6743 3.48151 14.6395 4.48356 14.6395 5.71964C14.6395 6.9557 15.6743 7.95775 16.951 7.95775Z" fill="url(#paint0_linear_383_41)"/>
<path fill-rule="evenodd" clip-rule="evenodd" d="M28.508 47.0004C32.1961 47.0004 35.1858 44.1057 35.1858 40.5348V36.0585H23.6282V34.8152H40.3224C44.0105 34.8152 47 31.9203 47 28.3495V18.6509C47 15.0801 44.0105 12.1853 40.3224 12.1853H36.4699V17.6562C36.4699 21.2272 33.4802 24.1219 29.7923 24.1219H17.4643C14.3436 24.1219 11.814 26.5713 11.814 29.5928V40.5348C11.814 44.1057 14.8037 47.0004 18.4916 47.0004H28.508ZM30.0492 39.0427C28.7724 39.0427 27.7376 40.0447 27.7376 41.2808C27.7376 42.5169 28.7724 43.5189 30.0492 43.5189C31.3257 43.5189 32.3606 42.5169 32.3606 41.2808C32.3606 40.0447 31.3257 39.0427 30.0492 39.0427Z" fill="url(#paint1_linear_383_41)"/>
<defs>
<linearGradient id="paint0_linear_383_41" x1="17.5931" y1="0" x2="17.5931" y2="34.8151" gradientUnits="userSpaceOnUse">
<stop stop-color="#327EBD"/>
<stop offset="1" stop-color="#1565A7"/>
</linearGradient>
<linearGradient id="paint1_linear_383_41" x1="29.4071" y1="12.1853" x2="29.4071" y2="47.0004" gradientUnits="userSpaceOnUse">
<stop stop-color="#FFDA4B"/>
<stop offset="1" stop-color="#F9C600"/>
</linearGradient>
</defs>
</svg>
