<svg width="47" height="42" viewBox="0 0 47 42" fill="none" xmlns="http://www.w3.org/2000/svg">
<path d="M35.8389 30.1716C36.2274 30.1028 36.5997 30.3518 36.6864 30.734L36.6912 30.7566L36.7326 30.9716C38.0756 38.0324 37.1295 41.5627 33.8944 41.5627C30.7293 41.5627 26.7 38.5503 21.8067 32.5253C21.6986 32.3922 21.6402 32.2256 21.6417 32.0541C21.6452 31.6546 21.9658 31.3321 22.3625 31.3235L22.3854 31.3233L22.6431 31.3252C24.7022 31.3363 26.704 31.2645 28.6485 31.1098C30.9438 30.9271 33.3406 30.6144 35.8389 30.1716ZM13.6216 24.8344L13.634 24.8553L13.7633 25.081C14.7995 26.8824 15.879 28.5921 17.0019 30.2102C18.3244 32.1158 19.8115 34.0449 21.4634 35.9976C21.7189 36.2996 21.6898 36.748 21.4015 37.0147L21.3827 37.0314L21.2165 37.1745C15.7511 41.8574 12.1988 42.7923 10.5597 39.9791C8.95514 37.2254 9.53687 32.2184 12.3048 24.9582C12.3657 24.7986 12.48 24.6651 12.6283 24.5805C12.9748 24.3827 13.4142 24.4969 13.6216 24.8344ZM38.6122 14.4157L38.6346 14.423L38.8403 14.494C45.5865 16.8407 48.1495 19.4196 46.5294 22.2308C44.9449 24.9802 40.3387 26.982 32.7106 28.2362C32.5405 28.2642 32.366 28.2317 32.2174 28.1443C31.8664 27.9379 31.7491 27.4861 31.9554 27.1351C33.048 25.2766 34.032 23.4275 34.9074 21.5875C35.9003 19.5009 36.8321 17.2611 37.7027 14.8683C37.8347 14.5055 38.2225 14.3084 38.5898 14.4091L38.6122 14.4157ZM14.7826 13.2341C15.1336 13.4405 15.2509 13.8923 15.0446 14.2433C13.952 16.1018 12.968 17.951 12.0926 19.7909C11.0997 21.8776 10.1679 24.1173 9.29729 26.5102C9.1626 26.8803 8.7616 27.078 8.38775 26.9628L8.36536 26.9555L8.15965 26.8844C1.41354 24.5377 -1.14949 21.9588 0.470575 19.1476C2.05505 16.3982 6.66132 14.3964 14.2894 13.1422C14.4595 13.1142 14.634 13.1468 14.7826 13.2341ZM36.4403 1.67579C38.0449 4.42948 37.4631 9.43647 34.6952 16.6967C34.6343 16.8563 34.52 16.9898 34.3717 17.0744C34.0252 17.2722 33.5858 17.158 33.3784 16.8205L33.366 16.7996L33.2367 16.5739C32.2005 14.7725 31.121 13.0628 29.9981 11.4447C28.6756 9.53907 27.1885 7.60996 25.5366 5.65734C25.2811 5.35526 25.3102 4.90689 25.5985 4.64023L25.6173 4.62346L25.7835 4.48041C31.2489 -0.202538 34.8012 -1.13741 36.4403 1.67579ZM13.382 0C16.5472 0 20.5765 3.01247 25.4698 9.0374C25.5779 9.17052 25.6362 9.33717 25.6348 9.50865C25.6312 9.90813 25.3106 10.2306 24.914 10.2393L24.891 10.2394L24.6334 10.2376C22.5742 10.2264 20.5724 10.2982 18.628 10.453C16.3327 10.6357 13.9359 10.9484 11.4376 11.3911C11.0491 11.46 10.6768 11.2109 10.5901 10.8288L10.5853 10.8061L10.5439 10.5911C9.2009 3.53037 10.1469 0 13.382 0Z" fill="#FF4154"/>
<path d="M20.5596 12.6096H26.8797C27.8039 12.6096 28.6576 13.104 29.1177 13.9056L32.291 19.435C32.7475 20.2304 32.7475 21.2084 32.291 22.0038L29.1177 27.5332C28.6576 28.3349 27.8039 28.8292 26.8797 28.8292H20.5596C19.6354 28.8292 18.7817 28.3349 18.3216 27.5332L15.1483 22.0038C14.6918 21.2084 14.6918 20.2304 15.1483 19.435L18.3216 13.9056C18.7817 13.104 19.6354 12.6096 20.5596 12.6096ZM25.9164 14.2785C26.8412 14.2785 27.6952 14.7734 28.1551 15.5757L30.368 19.4362C30.8236 20.231 30.8236 21.2078 30.368 22.0026L28.1551 25.8632C27.6952 26.6655 26.8412 27.1603 25.9164 27.1603H21.5229C20.5981 27.1603 19.7441 26.6655 19.2842 25.8632L17.0713 22.0026C16.6157 21.2078 16.6157 20.231 17.0713 19.4362L19.2842 15.5757C19.7441 14.7734 20.5981 14.2785 21.5229 14.2785H25.9164ZM24.8782 16.1039H22.5611C21.6373 16.1039 20.7839 16.5977 20.3237 17.3987L19.1544 19.4339C18.697 20.2299 18.697 21.209 19.1544 22.005L20.3237 24.0401C20.7839 24.8411 21.6373 25.335 22.5611 25.335H24.8782C25.802 25.335 26.6554 24.8411 27.1156 24.0401L28.2849 22.005C28.7423 21.209 28.7423 20.2299 28.2849 19.4339L27.1156 17.3987C26.6554 16.5977 25.802 16.1039 24.8782 16.1039ZM23.8785 17.851C24.8016 17.851 25.6544 18.3441 26.1149 19.1442L26.2807 19.4322C26.7394 20.2291 26.7394 21.2098 26.2807 22.0066L26.1149 22.2947C25.6544 23.0947 24.8016 23.5878 23.8785 23.5878H23.5608C22.6376 23.5878 21.7848 23.0947 21.3244 22.2947L21.1586 22.0066C20.6999 21.2098 20.6999 20.2291 21.1586 19.4322L21.3244 19.1442C21.7848 18.3441 22.6376 17.851 23.5608 17.851H23.8785ZM23.7201 19.5721C23.3092 19.5721 22.9303 19.7907 22.7252 20.1457C22.5201 20.5007 22.5201 20.9381 22.7252 21.2931C22.9303 21.6481 23.3092 21.8668 23.7192 21.8668C24.1301 21.8668 24.509 21.6481 24.7141 21.2931C24.9192 20.9381 24.9192 20.5007 24.7141 20.1457C24.509 19.7907 24.1301 19.5721 23.7201 19.5721ZM14.4111 20.7194H16.4769Z" fill="#FFD94C"/>
</svg>
