<svg width="47" height="41" viewBox="0 0 47 41" fill="none" xmlns="http://www.w3.org/2000/svg">
<path d="M27.6971 20.3289C27.6971 18.0817 25.8182 16.2596 23.5002 16.2596C21.1824 16.2596 19.3032 18.0817 19.3032 20.3289C19.3032 22.5764 21.1824 24.3983 23.5002 24.3983C25.8182 24.3983 27.6971 22.5764 27.6971 20.3289Z" fill="#53C1DE"/>
<path fill-rule="evenodd" clip-rule="evenodd" d="M37.1306 12.7741C38.0169 9.28215 39.1309 2.80665 35.2036 0.611249C31.2946 -1.57458 26.2078 2.61387 23.5218 5.12798C20.8436 2.63892 15.6139 -1.53162 11.6899 0.670751C7.78243 2.86391 8.9874 9.23205 9.89334 12.7459C6.24835 13.7497 0 15.9117 0 20.3289C0 24.7336 6.24185 27.0858 9.86527 28.0886C8.95598 31.6219 7.81134 37.8991 11.7238 40.0874C15.6624 42.2893 20.8758 38.218 23.5868 35.6764C26.2901 38.2054 31.328 42.3033 35.2378 40.1089C39.1598 37.9075 38.1383 31.5188 37.2323 27.9846C40.7448 26.9796 47 24.6786 47 20.3289C47 15.9541 40.7181 13.7746 37.1306 12.7741ZM36.6854 26.1116C36.0905 24.2858 35.2876 22.3443 34.3055 20.3386C35.243 18.3803 36.0147 16.4638 36.5929 14.6497C39.2229 15.3891 44.9923 17.0787 44.9923 20.3289C44.9923 23.6097 39.4559 25.3153 36.6854 26.1116ZM34.2317 38.4241C31.3145 40.0612 26.9813 36.1424 24.9849 34.2801C26.3093 32.8756 27.6329 31.2428 28.9246 29.4297C31.1969 29.2343 33.3434 28.9147 35.2901 28.4784C35.9277 30.9783 37.1616 36.7795 34.2317 38.4241ZM12.727 38.4007C9.80957 36.7697 11.143 31.1682 11.812 28.5655C13.7371 28.9785 15.8681 29.2755 18.1458 29.4546C19.4459 31.2287 20.8078 32.8594 22.1802 34.2876C20.4846 35.8779 15.6581 40.0393 12.727 38.4007ZM2.00767 20.3289C2.00767 17.0359 7.74258 15.3585 10.4325 14.6211C11.0207 16.4758 11.7922 18.4152 12.7233 20.3764C11.7802 22.3667 10.9976 24.3368 10.404 26.2135C7.83911 25.5016 2.00767 23.6239 2.00767 20.3289ZM12.6958 2.35554C15.6252 0.711516 20.1704 4.7154 22.1149 6.51754C20.7496 7.93914 19.4002 9.5576 18.1111 11.3215C15.9007 11.5202 13.7847 11.8391 11.8394 12.2665C11.1096 9.43244 9.76961 3.9978 12.6958 2.35554ZM30.3609 13.4375C31.8605 13.6209 33.2973 13.865 34.6464 14.1636C34.2414 15.4223 33.7366 16.7384 33.142 18.0876C32.2802 16.5022 31.3551 14.9485 30.3609 13.4375ZM23.5224 7.90869C24.4485 8.88139 25.3759 9.9676 26.2884 11.146C24.4377 11.0611 22.584 11.0608 20.7333 11.1448C21.6465 9.97728 22.5819 8.89268 23.5224 7.90869ZM13.8752 18.0862C13.2905 16.7417 12.7902 15.4198 12.3817 14.1431C13.7227 13.8522 15.1528 13.6143 16.6427 13.4339C15.6457 14.9416 14.7221 16.4946 13.8752 18.0862ZM16.6855 27.3629C15.1464 27.1964 13.6946 26.9706 12.354 26.6877C12.769 25.3886 13.2803 24.0382 13.8775 22.6647C14.7361 24.2728 15.6737 25.8409 16.6855 27.3629ZM23.578 32.8867C22.6264 31.8911 21.6772 30.7899 20.7502 29.6055C22.6114 29.6763 24.4762 29.6764 26.3372 29.5959C25.422 30.8019 24.4978 31.9047 23.578 32.8867ZM33.1612 22.5948C33.7894 23.9832 34.3189 25.3263 34.7396 26.6034C33.3767 26.905 31.9055 27.1478 30.3553 27.3281C31.3568 25.7884 32.2967 24.2106 33.1612 22.5948ZM27.8041 27.5641C24.9572 27.7613 22.0925 27.7591 19.2446 27.5802C17.6264 25.2883 16.1859 22.878 14.9424 20.3758C16.1799 17.8786 17.61 15.473 19.2205 13.1848C22.0704 12.9759 24.9379 12.9753 27.7878 13.186C29.3846 15.4741 30.8124 17.8735 32.0786 20.348C30.8275 22.8439 29.3899 25.2544 27.8041 27.5641ZM34.2008 2.29767C37.1309 3.93631 35.8267 9.75604 35.1866 12.2867C33.2367 11.8504 31.1192 11.5258 28.9023 11.324C27.6108 9.54106 26.2727 7.91978 24.9294 6.51653C26.8989 4.67557 31.299 0.675059 34.2008 2.29767Z" fill="#53C1DE"/>
</svg>
