<svg width="47" height="44" viewBox="0 0 47 44" fill="none" xmlns="http://www.w3.org/2000/svg">
<path d="M32.566 30.6362C34.3005 30.4596 35.6163 28.9896 35.5564 27.2254C35.4968 25.4615 34.0014 24.0502 32.2071 24.0502H32.0875C30.2332 24.109 28.798 25.6379 28.8579 27.4607C28.9177 28.3428 29.2765 29.1071 29.8148 29.6364C27.7812 33.5762 24.6711 36.4575 20.006 38.8684C16.836 40.5148 13.5467 41.1029 10.2572 40.6914C7.56572 40.3386 5.47238 39.1626 4.15638 37.2218C2.24259 34.3406 2.06322 31.224 3.67811 28.1076C4.81455 25.8731 6.60864 24.2265 7.74508 23.4032C7.50587 22.6388 7.14693 21.3452 6.96756 20.4045C-1.70486 26.5787 -0.807632 34.9287 1.82401 38.8684C3.79763 41.8086 7.80493 43.6315 12.2308 43.6315C13.4269 43.6315 14.6231 43.5137 15.8194 43.22C23.4751 41.7498 29.2766 37.2807 32.566 30.6362ZM43.0926 23.3446C38.5471 18.1112 31.8483 15.2299 24.1926 15.2299H23.2359C22.6976 14.1715 21.5611 13.4657 20.3051 13.4657H20.1854C18.3314 13.5246 16.8962 15.0533 16.9559 16.8763C17.0157 18.6404 18.5108 20.0516 20.3051 20.0516H20.4246C21.7405 19.9929 22.8769 19.1696 23.3554 18.0523H24.4319C28.9775 18.0523 33.2837 19.3459 37.1715 21.8745C40.1618 23.8149 42.315 26.3435 43.5112 29.4012C44.528 31.8709 44.4681 34.2818 43.3915 36.34C41.7169 39.4564 38.906 41.1617 35.1977 41.1617C32.8052 41.1617 30.5326 40.4561 29.3363 39.9268C28.6785 40.5148 27.4822 41.4556 26.6448 42.0439C29.2168 43.2198 31.8483 43.8667 34.3603 43.8667C40.102 43.8667 44.3486 40.75 45.9635 37.6336C47.6978 34.2229 47.5781 28.3428 43.0926 23.3446ZM12.7093 31.6356C12.7691 33.3996 14.2643 34.8107 16.0586 34.8107H16.1783C18.0323 34.7521 19.4677 33.2232 19.4079 31.4004C19.3482 29.6362 17.8528 28.2251 16.0586 28.2251H15.9391C15.8194 28.2251 15.6399 28.2251 15.5205 28.2837C13.0682 24.2852 12.0515 19.934 12.4104 15.2298C12.6494 11.7016 13.8457 8.64377 15.9391 6.1152C17.6734 3.93949 21.0228 2.88107 23.2957 2.82241C29.6354 2.70473 32.3266 10.4666 32.5061 13.5832C33.2837 13.7596 34.5995 14.1713 35.4968 14.4654C34.7789 4.93945 28.798 0 23.0565 0C17.6734 0 12.7093 3.82218 10.7355 9.4672C7.98431 16.9938 9.77857 24.2265 13.1279 29.9304C12.829 30.342 12.6494 30.9887 12.7093 31.6356Z" fill="#764ABC"/>
</svg>
