<svg width="47" height="47" viewBox="0 0 47 47" fill="none" xmlns="http://www.w3.org/2000/svg">
<path fill-rule="evenodd" clip-rule="evenodd" d="M23.5 0C36.4753 0 47 10.5247 47 23.5C47 36.4753 36.4753 47 23.5 47C10.5247 47 0 36.4753 0 23.5C0 10.5247 10.5247 0 23.5 0Z" fill="#CC6699"/>
<path d="M38.2494 10.0857C37.1887 5.91607 30.2667 4.54448 23.7104 6.86704C19.8151 8.24778 15.5906 10.424 12.5548 13.2678C8.94294 16.6419 8.37601 19.5772 8.60461 20.8025C9.43671 25.1367 15.3711 27.9622 17.8126 30.0653V30.0744C17.0902 30.4311 11.8324 33.0919 10.598 35.8169C9.29955 38.6881 10.8083 40.7546 11.805 41.0289C14.8957 41.8884 18.0686 40.3431 19.7694 37.8011C21.4153 35.3505 21.2781 32.1775 20.5649 30.6048C21.5525 30.3488 22.7046 30.2299 24.1585 30.3945C28.2824 30.8791 29.0871 33.4486 28.9316 34.5276C28.7762 35.6065 27.9167 36.2009 27.6241 36.3746C27.3315 36.5575 27.2492 36.6124 27.2674 36.7495C27.304 36.9416 27.432 36.9324 27.6789 36.8958C28.0173 36.841 29.846 36.018 29.9192 34.0338C30.0198 31.51 27.5966 28.6846 23.3173 28.7577C21.5525 28.7851 20.446 28.9589 19.6414 29.2515C19.5865 29.1875 19.5225 29.1143 19.4585 29.0503C16.8067 26.2248 11.9147 24.2223 12.125 20.4275C12.1982 19.0468 12.6828 15.4075 21.5342 11.0001C28.7853 7.38825 34.5918 8.38494 35.5976 10.5886C37.0332 13.7342 32.4978 19.5863 24.9632 20.4367C22.092 20.7567 20.5832 19.6503 20.2083 19.2297C19.8151 18.7908 19.7511 18.7725 19.6048 18.8548C19.3671 18.9919 19.5134 19.376 19.6048 19.6046C19.8334 20.1898 20.7478 21.2231 22.3297 21.7443C23.7104 22.2015 27.0846 22.4484 31.1536 20.8756C35.7348 19.0925 39.2918 14.1822 38.2494 10.0857ZM18.8367 31.3546C19.175 32.6165 19.1385 33.796 18.791 34.8659C18.7544 34.9847 18.7087 35.1036 18.663 35.2133C18.6173 35.3322 18.5624 35.4419 18.5075 35.5608C18.2332 36.1277 17.8674 36.6581 17.4194 37.1427C16.0569 38.6332 14.1459 39.191 13.332 38.7246C12.4451 38.2126 12.8931 36.1095 14.475 34.4361C16.1758 32.6347 18.6264 31.4826 18.6264 31.4826V31.4735C18.6904 31.4277 18.7636 31.3912 18.8367 31.3546Z" fill="white"/>
</svg>
