<svg width="47" height="47" viewBox="0 0 47 47" fill="none" xmlns="http://www.w3.org/2000/svg">
<path d="M23.5 8.26172C15.1554 8.26172 8.26172 15.1554 8.26172 23.5C8.26172 31.8443 15.1554 38.7383 23.5 38.7383C31.8446 38.7383 38.7383 31.8443 38.7383 23.5C38.7383 15.1554 31.8446 8.26172 23.5 8.26172Z" fill="#7ED8F6"/>
<path d="M38.7383 23.5C38.7383 31.8443 31.8446 38.7383 23.5 38.7383V8.26172C31.8446 8.26172 38.7383 15.1554 38.7383 23.5Z" fill="#6AA9FF"/>
<path d="M47 23.5C47 28.7872 45.1824 34.0842 41.8502 38.215L39.7021 36.5076C42.6764 32.7898 44.2461 28.2364 44.2461 23.5C44.2461 12.0988 34.9012 2.75391 23.5 2.75391C12.0988 2.75391 2.75391 12.0988 2.75391 23.5C2.75391 34.9012 12.0988 44.2461 23.5 44.2461C27.1352 44.2461 30.6877 43.2822 33.8271 41.4646L35.2041 43.8605C31.6516 45.926 27.6033 47 23.5 47C10.5842 47 0 36.4158 0 23.5C0 10.5842 10.5842 0 23.5 0C36.4158 0 47 10.5842 47 23.5Z" fill="#FF9100"/>
<path d="M33.8271 41.4646L35.2041 43.8605C31.6516 45.9259 27.6033 47 23.5 47V44.246C27.1352 44.246 30.6877 43.2822 33.8271 41.4646Z" fill="#FF641A"/>
<path d="M47 23.5C47 28.7872 45.1824 34.0842 41.8502 38.215L39.7021 36.5076C42.6764 32.7898 44.2461 28.2364 44.2461 23.5C44.2461 12.0988 34.9012 2.75391 23.5 2.75391V0C36.4158 0 47 10.5842 47 23.5Z" fill="#FF641A"/>
<path d="M47 38.7383H38.7383V30.4766H41.4922V35.9844H47V38.7383Z" fill="#FF641A"/>
</svg>
