<svg width="47" height="60" viewBox="0 0 47 60" fill="none" xmlns="http://www.w3.org/2000/svg">
<path d="M19.7724 59.9618C13.9008 59.557 8.09754 58.1433 4.53843 56.2508C2.51116 55.1728 0.966665 53.848 0.360596 52.6673L0 51.9648V29.9293V7.89381L0.285337 7.33963C1.56046 4.86334 5.62997 2.63095 11.3108 1.2915C13.2391 0.836782 16.023 0.383958 18.2941 0.155615C20.6132 -0.0776139 26.7602 -0.0421299 29.0735 0.218184C35.2218 0.909127 40.4537 2.45598 43.6779 4.53618C44.9213 5.33838 46.1972 6.62198 46.6294 7.50552L47 8.26305L46.9683 30.2319L46.9366 52.2008L46.6391 52.7789C46.4755 53.0968 45.9813 53.7224 45.5409 54.1688C42.8599 56.8873 37.1093 58.8982 29.5663 59.755C28.0289 59.9297 21.3498 60.0706 19.7724 59.9618ZM30.5929 41.0804C30.5703 41.0241 29.6926 40.2761 28.6423 39.4182C27.5921 38.5603 26.6876 37.818 26.6323 37.7687C26.577 37.7194 26.771 37.545 27.0635 37.381C27.3559 37.217 27.9162 36.7608 28.3086 36.3673C29.456 35.2164 29.9974 33.7947 29.9974 31.9325C29.9974 30.0993 29.4135 28.6201 28.244 27.491C27.0654 26.3529 25.712 25.8639 23.7412 25.8639C20.7034 25.8639 18.3703 27.5594 17.6256 30.3083C17.3695 31.2538 17.3709 33.1643 17.6283 34.0027C18.2999 36.1896 20.1289 37.7779 22.4051 38.1508C23.1754 38.277 23.2797 38.3314 23.8049 38.8806C24.117 39.207 24.7574 39.8585 25.2281 40.3284L26.0839 41.1827H28.359C29.6102 41.1827 30.6155 41.1367 30.5929 41.0804ZM22.7909 34.9874C22.2432 34.7142 22.0362 34.5023 21.7238 33.8949C21.4826 33.4259 21.4414 33.1591 21.4387 32.0504C21.436 30.9238 21.4735 30.6804 21.7253 30.1912C22.1374 29.3908 22.7053 29.0118 23.5837 28.951C24.8065 28.8662 25.5123 29.4402 25.8822 30.8197C26.3357 32.511 25.837 34.3092 24.7488 34.9059C24.178 35.219 23.3264 35.2545 22.7909 34.9874ZM12.707 38.1268C15.0922 37.6941 16.4462 36.3673 16.4462 34.4626C16.4462 32.7729 15.5721 31.7883 13.1561 30.7566C11.7731 30.166 11.2721 29.7954 11.2721 29.3622C11.2721 29.0033 11.7475 28.6099 12.3009 28.5111C12.8413 28.4146 14.2745 28.6527 15.1208 28.9797L15.8303 29.2538V27.7518V26.2496L15.0603 26.0862C14.5844 25.9853 13.5845 25.9247 12.4424 25.9278C10.8247 25.9278 10.508 25.9655 9.89918 26.1967C8.12091 26.872 7.27707 28.0223 7.29056 29.7526C7.3032 31.3724 8.19657 32.3828 10.42 33.2918C11.7319 33.8281 12.2577 34.2365 12.2577 34.7191C12.2577 35.7447 10.4712 35.8709 8.57975 34.979C8.06176 34.7347 7.59636 34.5149 7.54554 34.4906C7.49474 34.4663 7.45317 35.1679 7.45317 36.0499C7.45317 37.6462 7.45494 37.6539 7.7571 37.764C8.89496 38.1778 11.4099 38.3621 12.707 38.1268ZM39.9761 36.646V35.2909H37.8202H35.6643V30.6363V25.9818H33.7548H31.8454V31.9914V38.0011H35.9107H39.9761V36.646ZM26.6712 12.8988C30.4657 12.6471 33.3101 12.1718 35.8131 11.3713C38.3066 10.5738 39.7796 9.60885 40.1091 8.55696C40.236 8.15162 40.2269 7.99787 40.0495 7.55344C39.254 5.56101 34.8101 4.03021 28.0194 3.40956C25.1147 3.14401 19.832 3.2301 17.0624 3.58795C12.8363 4.13412 9.40665 5.14862 7.88169 6.30362C4.79685 8.64019 8.05909 11.2101 15.6455 12.4197C18.935 12.9442 23.1967 13.1294 26.6712 12.8988Z" fill="#00BCF2"/>
</svg>
