<svg width="47" height="28" viewBox="0 0 47 28" fill="none" xmlns="http://www.w3.org/2000/svg">
<path d="M11.75 9.33333C13.3167 3.11111 17.2333 0 23.5 0C32.9 0 34.075 7 38.775 8.16667C41.9083 8.94444 44.65 7.77778 47 4.66667C45.4333 10.8889 41.5167 14 35.25 14C25.85 14 24.675 7 19.975 5.83333C16.8417 5.05556 14.1 6.22222 11.75 9.33333ZM0 23.3333C1.56667 17.1111 5.48333 14 11.75 14C21.15 14 22.325 21 27.025 22.1667C30.1583 22.9444 32.9 21.7778 35.25 18.6667C33.6833 24.8889 29.7667 28 23.5 28C14.1 28 12.925 21 8.225 19.8333C5.09167 19.0556 2.35 20.2222 0 23.3333Z" fill="#38BDF8"/>
</svg>
