<svg width="47" height="47" viewBox="0 0 47 47" fill="none" xmlns="http://www.w3.org/2000/svg">
<path d="M44.7977 0H2.20229C0.985997 0 0 0.985997 0 2.20229V44.7977C0 46.014 0.985997 47 2.20229 47H44.7977C46.014 47 47 46.014 47 44.7977V2.20229C47 0.985997 46.014 0 44.7977 0Z" fill="#3178C6"/>
<path fill-rule="evenodd" clip-rule="evenodd" d="M27.2685 36.524V41.6739C28.2042 42.1357 29.2014 42.4607 30.2295 42.639C31.4176 42.8584 32.6236 42.9663 33.8317 42.9613C35.0092 42.9669 36.184 42.8482 37.3366 42.6072C38.3714 42.398 39.3587 41.9997 40.2489 41.4322C41.0753 40.8987 41.7565 40.1685 42.2313 39.3071C43.0817 37.5233 43.1939 35.476 42.5435 33.61C42.2691 32.9122 41.8601 32.2751 41.34 31.735C40.7817 31.1607 40.1474 30.6655 39.455 30.2629C38.6577 29.796 37.8293 29.3843 36.9757 29.0309C36.3043 28.7522 35.7 28.4814 35.1629 28.2184C34.6858 27.99 34.2292 27.721 33.7982 27.4144C33.4606 27.1777 33.1674 26.8834 32.932 26.5449C32.7287 26.2376 32.6228 25.876 32.6282 25.5075C32.6237 25.1684 32.7182 24.8353 32.9001 24.5491C33.0977 24.2495 33.3613 23.9991 33.6706 23.8172C34.0487 23.5946 34.4602 23.4342 34.8892 23.3422C35.416 23.2252 35.9544 23.1689 36.494 23.1743C36.9477 23.1759 37.4009 23.2084 37.8502 23.2717C38.3355 23.3373 38.8156 23.4366 39.2871 23.5688C39.7667 23.7017 40.2357 23.87 40.6904 24.0724C41.1316 24.269 41.5536 24.5062 41.951 24.7807V19.975C41.1236 19.662 40.2656 19.4369 39.3912 19.3035C38.3352 19.1499 37.269 19.0775 36.2019 19.087C35.0355 19.0807 33.8725 19.2131 32.7373 19.4815C31.7113 19.7159 30.7357 20.1327 29.8569 20.7119C29.0406 21.2557 28.3665 21.9873 27.8913 22.8453C27.3877 23.7982 27.1385 24.8649 27.1678 25.9423C27.1306 27.367 27.5999 28.7588 28.4922 29.8702C29.587 31.1024 30.9674 32.0471 32.5124 32.6213C33.2174 32.9123 33.8748 33.1971 34.4847 33.4757C35.035 33.7206 35.5639 34.0108 36.0659 34.3435C36.4709 34.607 36.8265 34.9393 37.1167 35.3255C37.3719 35.6758 37.5073 36.099 37.5028 36.5324C37.5051 36.8571 37.4217 37.1767 37.2611 37.459C37.0826 37.7623 36.8317 38.0166 36.5309 38.1992C36.1545 38.4287 35.7427 38.5943 35.3122 38.6894C34.7515 38.8147 34.178 38.8739 33.6035 38.8656C32.476 38.8636 31.3575 38.6647 30.2984 38.2781C29.1919 37.8788 28.1658 37.2848 27.2685 36.524ZM18.6172 23.7031H25.3315V19.4613H6.61035V23.7031H13.2944V42.5937H18.6172V23.7031Z" fill="white"/>
</svg>
