<svg width="47" height="47" viewBox="0 0 47 47" fill="none" xmlns="http://www.w3.org/2000/svg">
<path d="M0 5.22222C0 2.33825 2.33825 0 5.22222 0H41.7778C44.6618 0 47 2.33825 47 5.22222V41.7778C47 44.6618 44.6618 47 41.7778 47H5.22222C2.33825 47 0 44.6618 0 41.7778V5.22222Z" fill="#FF41C8"/>
<path d="M3.9165 3.91663V43.0833H43.0832V3.91663H3.9165ZM17.0935 20.4907L19.5923 14.1156H23.8889L19.5283 23.3211L23.9907 32.6793H19.6432L17.0935 26.1894L14.5568 32.6793H10.2093L14.6717 23.3211L10.2981 14.1156H14.5946L17.0935 20.4907ZM24.8955 25.3617C24.8955 23.1005 25.278 21.4137 26.0431 20.3C26.8081 19.1864 27.9204 18.6302 29.384 18.6302C30.4454 18.6302 31.3306 19.0898 32.0356 20.0076V13.0973H35.6689V32.6806H32.392L32.2262 31.2785C31.4872 32.3843 30.5342 32.9365 29.3696 32.9365C27.9257 32.9365 26.8225 32.3843 26.0613 31.2785C25.3002 30.1727 24.9111 28.5498 24.8942 26.4087L24.8955 25.3617ZM28.5171 26.2664C28.5171 27.6268 28.6607 28.5773 28.9505 29.1165C29.2404 29.6557 29.7286 29.9259 30.4167 29.9259C31.1308 29.9259 31.67 29.6073 32.0356 28.9702V22.6722C31.6791 21.992 31.1426 21.6526 30.4297 21.6526C29.7665 21.6526 29.2821 21.9202 28.9766 22.4555C28.6711 22.9908 28.5171 23.9438 28.5171 25.3121V26.2664Z" fill="#16020B"/>
</svg>
