<svg width="27" height="27" viewBox="0 0 27 27" fill="none" xmlns="http://www.w3.org/2000/svg">
<path d="M19.75 14.75V22.25C19.75 22.595 19.6112 22.9062 19.3837 23.1337C19.1562 23.3612 18.845 23.4999 18.5 23.4999H4.75C4.405 23.4999 4.09375 23.3612 3.86626 23.1337C3.63877 22.9062 3.50002 22.595 3.50002 22.25V8.49997C3.50002 8.15497 3.63877 7.84372 3.86626 7.61623C4.09375 7.38874 4.405 7.24999 4.75 7.24999H12.25C12.94 7.24999 13.5 6.68998 13.5 5.99998C13.5 5.30998 12.94 4.74997 12.25 4.74997H4.75C3.715 4.74997 2.77501 5.17123 2.09875 5.84872C1.42249 6.52621 1 7.46497 1 8.49997V22.25C1 23.285 1.42126 24.225 2.09875 24.9012C2.77624 25.5775 3.715 26 4.75 26H18.5C19.535 26 20.475 25.5787 21.1512 24.9012C21.8275 24.2237 22.25 23.285 22.25 22.25V14.75C22.25 14.06 21.69 13.5 21 13.5C20.31 13.5 19.75 14.06 19.75 14.75ZM11.8837 16.8837L23.5 5.26747V9.74998C23.5 10.44 24.06 11 24.75 11C25.44 11 26 10.44 26 9.74998V2.24998C26 2.07997 25.9662 1.91872 25.905 1.77124C25.8437 1.62376 25.7537 1.48624 25.635 1.3675C25.6337 1.36624 25.6337 1.36624 25.6325 1.36501C25.5175 1.25002 25.38 1.1575 25.2287 1.09501C25.0812 1.03375 24.92 1 24.75 1H17.25C16.56 1 16 1.56001 16 2.25001C16 2.94001 16.56 3.50002 17.25 3.50002H21.7325L10.1163 15.1163C9.62752 15.605 9.62752 16.3963 10.1163 16.8838C10.605 17.3713 11.3963 17.3725 11.8838 16.8838L11.8837 16.8837Z" fill="black" stroke="black"/>
</svg>
