<svg width="40" height="40" viewBox="0 0 40 40" fill="none" xmlns="http://www.w3.org/2000/svg">
<rect width="40" height="40" rx="8" fill="url(#paint0_linear_122_30)"/>
<path d="M22.4625 19.6848C22.2952 18.9883 21.6166 18.5647 20.9468 18.7389C20.2771 18.913 19.8698 19.6188 20.0373 20.3153L22.4625 19.6848ZM23.1249 27.8L21.9123 28.1153C22.0513 28.694 22.5513 29.1 23.1249 29.1C23.6985 29.1 24.1985 28.694 24.3375 28.1153L23.1249 27.8ZM26.2125 20.3153C26.38 19.6188 25.9728 18.913 25.303 18.7389C24.6333 18.5647 23.9547 18.9883 23.7873 19.6848L26.2125 20.3153ZM18.7499 29.1C19.4403 29.1 19.9999 28.518 19.9999 27.8C19.9999 27.082 19.4403 26.5 18.7499 26.5V29.1ZM18.7499 21.3001C19.4403 21.3001 19.9999 20.7181 19.9999 20.0001C19.9999 19.2821 19.4403 18.7001 18.7499 18.7001V21.3001ZM22.4999 8.53388C22.4999 7.8159 21.9403 7.23388 21.2499 7.23388C20.5596 7.23388 19.9999 7.8159 19.9999 8.53388H22.4999ZM28.5249 17.4001C29.2153 17.4001 29.7749 16.8181 29.7749 16.1001C29.7749 15.3821 29.2153 14.8001 28.5249 14.8001V17.4001ZM24.7499 30.4H15.25V33H24.7499V30.4ZM12.5 27.54V12.4601H10V27.54H12.5ZM15.25 9.60012H19.5931V7.00013H15.25V9.60012ZM27.4999 17.8232V27.54H29.9999V17.8232H27.4999ZM19.5931 9.60012C20.2641 9.60012 20.3958 9.60848 20.5062 9.63604L21.0898 7.10789C20.6248 6.99177 20.1451 7.00013 19.5931 7.00013V9.60012ZM23.3054 8.59932C22.915 8.19341 22.5815 7.83472 22.1738 7.57483L20.8676 9.79169C20.9643 9.85338 21.0632 9.94436 21.5377 10.4378L23.3054 8.59932ZM20.5062 9.63604C20.6338 9.66789 20.7557 9.72041 20.8676 9.79169L22.1738 7.57483C21.8383 7.361 21.4724 7.20343 21.0898 7.10789L20.5062 9.63604ZM15.25 30.4C14.5293 30.4 14.0639 30.399 13.7098 30.3689C13.3702 30.3401 13.2443 30.2911 13.1825 30.2583L12.0475 32.5749C12.5205 32.8255 13.012 32.9182 13.5062 32.9602C13.9858 33.001 14.5705 33 15.25 33V30.4ZM10 27.54C10 28.2467 9.99903 28.8548 10.0382 29.3535C10.0786 29.8675 10.1677 30.3787 10.4087 30.8706L12.6362 29.6902C12.6047 29.6259 12.5576 29.495 12.5299 29.1419C12.501 28.7735 12.5 28.2896 12.5 27.54H10ZM13.1825 30.2583C12.9473 30.1336 12.7561 29.9349 12.6362 29.6902L10.4087 30.8706C10.7682 31.6045 11.3419 32.201 12.0475 32.5749L13.1825 30.2583ZM24.7499 33C25.4294 33 26.0141 33.001 26.4936 32.9602C26.9879 32.9182 27.4794 32.8255 27.9524 32.5749L26.8174 30.2583C26.7555 30.2911 26.6296 30.3401 26.2901 30.3689C25.9359 30.399 25.4707 30.4 24.7499 30.4V33ZM27.4999 27.54C27.4999 28.2896 27.4989 28.7735 27.47 29.1419C27.4423 29.495 27.3951 29.6259 27.3636 29.6902L29.5911 30.8706C29.8321 30.3787 29.9213 29.8675 29.9616 29.3535C30.0009 28.8548 29.9999 28.2467 29.9999 27.54H27.4999ZM27.9524 32.5749C28.658 32.201 29.2316 31.6045 29.5911 30.8706L27.3636 29.6902C27.2438 29.9349 27.0526 30.1336 26.8174 30.2583L27.9524 32.5749ZM26.6944 15.8009C27.1689 16.2943 27.2564 16.3971 27.3156 16.4978L29.4473 15.1393C29.1974 14.7152 28.8525 14.3683 28.4621 13.9624L26.6944 15.8009ZM29.9999 17.8232C29.9999 17.2491 30.0079 16.7502 29.8963 16.2666L27.4654 16.8736C27.4919 16.9884 27.4999 17.1254 27.4999 17.8232H29.9999ZM27.3156 16.4978C27.3843 16.6141 27.4348 16.7409 27.4654 16.8736L29.8963 16.2666C29.8044 15.8687 29.6529 15.4882 29.4473 15.1393L27.3156 16.4978ZM12.5 12.4601C12.5 11.7106 12.501 11.2266 12.5299 10.8583C12.5576 10.5051 12.6047 10.3742 12.6362 10.3099L10.4087 9.12956C10.1677 9.62145 10.0786 10.1326 10.0382 10.6466C9.99903 11.1453 10 11.7535 10 12.4601H12.5ZM15.25 7.00013C14.5705 7.00013 13.9858 6.99912 13.5062 7.03987C13.012 7.08186 12.5205 7.17458 12.0475 7.4252L13.1825 9.74181C13.2443 9.70906 13.3702 9.66007 13.7098 9.63123C14.0639 9.60113 14.5293 9.60012 15.25 9.60012V7.00013ZM12.6362 10.3099C12.7561 10.0653 12.9473 9.86645 13.1825 9.74181L12.0475 7.4252C11.3419 7.79911 10.7682 8.39573 10.4087 9.12956L12.6362 10.3099ZM20.0373 20.3153L21.9123 28.1153L24.3375 27.4848L22.4625 19.6848L20.0373 20.3153ZM24.3375 28.1153L26.2125 20.3153L23.7873 19.6848L21.9123 27.4848L24.3375 28.1153ZM18.7499 26.5C18.1505 26.5 17.7633 26.4994 17.4672 26.4783C17.1822 26.458 17.0736 26.4235 17.0216 26.4011L16.0649 28.8031C16.4723 28.9786 16.8847 29.0429 17.297 29.0723C17.6981 29.1007 18.1846 29.1 18.7499 29.1V26.5ZM13.75 23.9C13.75 24.488 13.7493 24.994 13.7767 25.4112C13.8048 25.8399 13.8667 26.2688 14.0354 26.6926L16.3451 25.6975C16.3236 25.6435 16.2903 25.5305 16.2709 25.2341C16.2506 24.9261 16.25 24.5235 16.25 23.9H13.75ZM17.0216 26.4011C16.7153 26.2692 16.472 26.016 16.3451 25.6975L14.0354 26.6926C14.416 27.6481 15.1461 28.4074 16.0649 28.8031L17.0216 26.4011ZM18.7499 18.7001C18.1846 18.7001 17.6981 18.6994 17.297 18.7278C16.8847 18.7571 16.4723 18.8215 16.0649 18.997L17.0216 21.399C17.0736 21.3766 17.1822 21.342 17.4672 21.3218C17.7633 21.3007 18.1505 21.3001 18.7499 21.3001V18.7001ZM16.25 23.9C16.25 23.2766 16.2506 22.874 16.2709 22.566C16.2903 22.2696 16.3236 22.1566 16.3451 22.1025L14.0354 21.1075C13.8667 21.5313 13.8048 21.9602 13.7767 22.3889C13.7493 22.8061 13.75 23.3121 13.75 23.9H16.25ZM16.0649 18.997C15.146 19.3927 14.416 20.152 14.0354 21.1075L16.3451 22.1025C16.472 21.784 16.7153 21.5309 17.0216 21.399L16.0649 18.997ZM19.9999 8.53388V14.8001H22.4999V8.53388H19.9999ZM22.4999 17.4001H28.5249V14.8001H22.4999V17.4001ZM19.9999 14.8001C19.9999 16.236 21.1192 17.4001 22.4999 17.4001V14.8001H19.9999ZM21.5377 10.4378L26.6944 15.8009L28.4621 13.9624L23.3054 8.59932L21.5377 10.4378Z" fill="white"/>
<defs>
<linearGradient id="paint0_linear_122_30" x1="2.98023e-07" y1="20" x2="40" y2="20" gradientUnits="userSpaceOnUse">
<stop stop-color="#2BD3FE"/>
<stop offset="1" stop-color="#751CDB"/>
</linearGradient>
</defs>
</svg>
