<svg width="40" height="40" viewBox="0 0 40 40" fill="none" xmlns="http://www.w3.org/2000/svg">
<rect width="40" height="40" rx="8" fill="url(#paint0_linear_124_33)"/>
<g clip-path="url(#clip0_124_33)">
<path fill-rule="evenodd" clip-rule="evenodd" d="M20 10C25.523 10 30 14.5899 30 20.2529C30 24.7819 27.138 28.624 23.167 29.981C22.66 30.082 22.48 29.7618 22.48 29.4888C22.48 29.1508 22.492 28.0468 22.492 26.6748C22.492 25.7188 22.172 25.0949 21.813 24.7769C24.04 24.5229 26.38 23.6558 26.38 19.7178C26.38 18.5978 25.992 17.6838 25.35 16.9658C25.454 16.7068 25.797 15.664 25.252 14.252C25.252 14.252 24.414 13.9772 22.505 15.3032C21.706 15.0762 20.85 14.962 20 14.958C19.15 14.962 18.295 15.0762 17.497 15.3032C15.586 13.9772 14.746 14.252 14.746 14.252C14.203 15.664 14.546 16.7068 14.649 16.9658C14.01 17.6838 13.619 18.5978 13.619 19.7178C13.619 23.6458 15.954 24.5262 18.175 24.7852C17.889 25.0412 17.63 25.4928 17.54 26.1558C16.97 26.4178 15.522 26.8712 14.63 25.3042C14.63 25.3042 14.101 24.3191 13.097 24.2471C13.097 24.2471 12.122 24.2341 13.029 24.8701C13.029 24.8701 13.684 25.1851 14.139 26.3701C14.139 26.3701 14.726 28.2001 17.508 27.5801C17.513 28.4371 17.522 29.2448 17.522 29.4888C17.522 29.7598 17.338 30.0769 16.839 29.9819C12.865 28.6269 10 24.7829 10 20.2529C10 14.5899 14.478 10 20 10Z" fill="white"/>
</g>
<defs>
<linearGradient id="paint0_linear_124_33" x1="2.98023e-07" y1="20" x2="40" y2="20" gradientUnits="userSpaceOnUse">
<stop stop-color="#2BD3FE"/>
<stop offset="1" stop-color="#751CDB"/>
</linearGradient>
<clipPath id="clip0_124_33">
<rect width="20" height="20" fill="white" transform="translate(10 10)"/>
</clipPath>
</defs>
</svg>
