<svg width="40" height="40" viewBox="0 0 40 40" fill="none" xmlns="http://www.w3.org/2000/svg">
<rect width="40" height="40" rx="8" fill="url(#paint0_linear_124_31)"/>
<path d="M14.9999 16.3637C15.753 16.3637 16.3635 15.7532 16.3635 15C16.3635 14.2469 15.753 13.6364 14.9999 13.6364C14.2467 13.6364 13.6362 14.2469 13.6362 15C13.6362 15.7532 14.2467 16.3637 14.9999 16.3637Z" fill="white"/>
<path d="M13.6362 18.1818C13.6362 17.6797 14.0432 17.2727 14.5453 17.2727H15.4544C15.9565 17.2727 16.3635 17.6797 16.3635 18.1818V25.4545C16.3635 25.9566 15.9565 26.3636 15.4544 26.3636H14.5453C14.0432 26.3636 13.6362 25.9566 13.6362 25.4545V18.1818Z" fill="white"/>
<path d="M19.0907 26.3636H19.9998C20.5019 26.3636 20.9089 25.9566 20.9089 25.4545V21.3636C20.9089 20 23.6362 19.0909 23.6362 20.9091V25.4549C23.6362 25.957 24.0432 26.3636 24.5453 26.3636H25.4544C25.9565 26.3636 26.3635 25.9566 26.3635 25.4545V20C26.3635 18.1818 24.9998 17.2727 23.1816 17.2727C21.3635 17.2727 20.9089 18.6363 20.9089 18.6363V18.1818C20.9089 17.6797 20.5019 17.2727 19.9998 17.2727H19.0907C18.5886 17.2727 18.1816 17.6797 18.1816 18.1818V25.4545C18.1816 25.9566 18.5886 26.3636 19.0907 26.3636Z" fill="white"/>
<path fill-rule="evenodd" clip-rule="evenodd" d="M27.2727 10C28.779 10 30 11.221 30 12.7273V27.2727C30 28.779 28.779 30 27.2727 30H12.7273C11.221 30 10 28.779 10 27.2727V12.7273C10 11.221 11.221 10 12.7273 10H27.2727ZM27.2727 11.8182C27.7748 11.8182 28.1818 12.2252 28.1818 12.7273V27.2727C28.1818 27.7748 27.7748 28.1818 27.2727 28.1818H12.7273C12.2252 28.1818 11.8182 27.7748 11.8182 27.2727V12.7273C11.8182 12.2252 12.2252 11.8182 12.7273 11.8182H27.2727Z" fill="white"/>
<defs>
<linearGradient id="paint0_linear_124_31" x1="2.98023e-07" y1="20" x2="40" y2="20" gradientUnits="userSpaceOnUse">
<stop stop-color="#2BD3FE"/>
<stop offset="1" stop-color="#751CDB"/>
</linearGradient>
</defs>
</svg>
