<svg xmlns="http://www.w3.org/2000/svg" xmlns:xlink="http://www.w3.org/1999/xlink" width="49" height="50" viewBox="0 0 49 50"><defs><style>.a{fill:url(#a);}</style><linearGradient id="a" x1="0.5" x2="0.5" y2="1" gradientUnits="objectBoundingBox"><stop offset="0" stop-color="#751cdb"/><stop offset="1" stop-color="#2bd3fe"/></linearGradient></defs><path class="a" d="M31.266,7.953v34.1H5.7V7.953H31.266M35.527,3.82H1.44v43.4H35.527ZM8.9,12.087H28.07V16.22H8.9Zm0,7.233H28.07v4.133H8.9Zm0,7.233H28.07v4.133H8.9Zm0,7.233H28.07V37.92H8.9Zm33.022-21.7H50.44V41.02H41.918ZM46.185.72a4.185,4.185,0,0,0-4.267,4.068v4.2H50.44v-4.2A4.18,4.18,0,0,0,46.185.72Zm-4.333,43.4,4.3,6.6,4.283-6.6Z" transform="translate(-1.44 -0.72)"/></svg>