<svg xmlns="http://www.w3.org/2000/svg" xmlns:xlink="http://www.w3.org/1999/xlink" width="50" height="50" viewBox="0 0 50 50"><defs><style>.a{fill:url(#a);}</style><linearGradient id="a" x1="0.5" x2="0.5" y2="1" gradientUnits="objectBoundingBox"><stop offset="0" stop-color="#751cdb"/><stop offset="1" stop-color="#2bd3fe"/></linearGradient></defs><path class="a" d="M48,13.526H38V8.263A5.119,5.119,0,0,0,33,3H23a5.119,5.119,0,0,0-5,5.263v5.263H8a5.1,5.1,0,0,0-4.975,5.263L3,47.737A5.119,5.119,0,0,0,8,53H48a5.119,5.119,0,0,0,5-5.263V18.789A5.119,5.119,0,0,0,48,13.526Zm-15,0H23V8.263H33Z" transform="translate(-3 -3)"/></svg>