<svg width="20" height="15" viewBox="0 0 20 15" fill="none" xmlns="http://www.w3.org/2000/svg">
<path fill-rule="evenodd" clip-rule="evenodd" d="M0 0H20V14.2857H0V0Z" fill="url(#paint0_linear_26_17)"/>
<path fill-rule="evenodd" clip-rule="evenodd" d="M0 0H20V3.80952H0V0Z" fill="url(#paint1_linear_26_17)"/>
<path fill-rule="evenodd" clip-rule="evenodd" d="M0 10.4762H20V14.2857H0V10.4762Z" fill="url(#paint2_linear_26_17)"/>
<path fill-rule="evenodd" clip-rule="evenodd" d="M0 3.80951H20V10.4762H0V3.80951Z" fill="url(#paint3_linear_26_17)"/>
<path fill-rule="evenodd" clip-rule="evenodd" d="M5.23828 6.66663H6.19066V7.14282H5.23828V6.66663Z" fill="#FFEDB1"/>
<path d="M4.68109 8.05664C4.70454 8.33806 4.9583 8.57138 5.23821 8.57138C5.51845 8.57138 5.77196 8.33702 5.79532 8.05664L5.91116 6.66662H4.56526L4.68109 8.05664ZM4.08705 6.66223C4.06533 6.40166 4.26746 6.19043 4.52955 6.19043H5.94686C6.21297 6.19043 6.41156 6.39591 6.38937 6.66223L6.26987 8.09619C6.22608 8.62162 5.76786 9.04757 5.23821 9.04757C4.71222 9.04757 4.2507 8.62599 4.20654 8.09619L4.08705 6.66223Z" fill="#A41517"/>
<path fill-rule="evenodd" clip-rule="evenodd" d="M4.28613 7.14282H6.19089V7.61901H5.7147L5.23851 8.57139L4.76232 7.61901H4.28613V7.14282Z" fill="#A41517"/>
<path fill-rule="evenodd" clip-rule="evenodd" d="M2.85742 5.71429H3.8098V9.04763H2.85742V5.71429Z" fill="#A41517"/>
<path fill-rule="evenodd" clip-rule="evenodd" d="M6.66699 5.71429H7.61937V9.04763H6.66699V5.71429Z" fill="#A41517"/>
<path fill-rule="evenodd" clip-rule="evenodd" d="M4.28613 5.23809C4.28613 4.9751 4.48998 4.7619 4.76678 4.7619H5.71024C5.9757 4.7619 6.19089 4.98279 6.19089 5.23809V5.47396C6.19089 5.60669 6.08849 5.71428 5.95733 5.71428H4.51969C4.3907 5.71428 4.28613 5.61236 4.28613 5.47396V5.23809Z" fill="#A41517"/>
<defs>
<linearGradient id="paint0_linear_26_17" x1="210" y1="0" x2="210" y2="214.286" gradientUnits="userSpaceOnUse">
<stop stop-color="white"/>
<stop offset="1" stop-color="#F0F0F0"/>
</linearGradient>
<linearGradient id="paint1_linear_26_17" x1="210" y1="0" x2="210" y2="57.1429" gradientUnits="userSpaceOnUse">
<stop stop-color="#DD172C"/>
<stop offset="1" stop-color="#C60B1F"/>
</linearGradient>
<linearGradient id="paint2_linear_26_17" x1="210" y1="10.4762" x2="210" y2="67.6191" gradientUnits="userSpaceOnUse">
<stop stop-color="#DD172C"/>
<stop offset="1" stop-color="#C60B1F"/>
</linearGradient>
<linearGradient id="paint3_linear_26_17" x1="210" y1="3.80951" x2="210" y2="103.81" gradientUnits="userSpaceOnUse">
<stop stop-color="#FFD133"/>
<stop offset="1" stop-color="#FFC500"/>
</linearGradient>
</defs>
</svg>
