<svg xmlns="http://www.w3.org/2000/svg" xmlns:xlink="http://www.w3.org/1999/xlink" width="50" height="50" viewBox="0 0 50 50"><defs><style>.a{fill:url(#a);}</style><linearGradient id="a" x1="0.5" x2="0.5" y2="1" gradientUnits="objectBoundingBox"><stop offset="0" stop-color="#751cdb"/><stop offset="1" stop-color="#2bd3fe"/></linearGradient></defs><path class="a" d="M54.25,13.656a12.956,12.956,0,0,1-2.7,13.91A12.256,12.256,0,0,1,36.6,29.61l-3.444,3.842,2.457,2.52,1.468-1.5a1.89,1.89,0,0,1,2.717,0L51.71,46.76a1.99,1.99,0,0,1,0,2.776l-5.435,5.552a1.89,1.89,0,0,1-2.717,0L31.651,42.8a1.99,1.99,0,0,1,0-2.776l1.341-1.37-2.341-2.4L14.185,54.634a3.784,3.784,0,0,1-5.435,0L7.391,53.246a3.985,3.985,0,0,1,0-5.552L26.15,31.644,13.691,18.882l-3.935,0L5.2,11.4l3.665-3.75,7.488,4.682.049,3.936,12.6,12.926,3.667-3.136A12.936,12.936,0,0,1,33.881,9.521,12.3,12.3,0,0,1,47.439,6.729l-8.074,8.134,6.8,6.942,8.089-8.15Zm-42.352,36a1.894,1.894,0,0,0-2.717,0,1.993,1.993,0,0,0,0,2.778,1.894,1.894,0,0,0,2.717,0A1.993,1.993,0,0,0,11.9,49.652Z" transform="translate(-5.202 -5.785)"/></svg>