<svg xmlns="http://www.w3.org/2000/svg" xmlns:xlink="http://www.w3.org/1999/xlink" width="46.505" height="33.204" viewBox="0 0 46.505 33.204"><defs><style>.a{fill:url(#a);}</style><linearGradient id="a" x1="0.5" x2="0.5" y2="1" gradientUnits="objectBoundingBox"><stop offset="0" stop-color="#751cdb"/><stop offset="1" stop-color="#2bd3fe"/></linearGradient></defs><path class="a" d="M10.145,14.386a2.014,2.014,0,1,0,2,2.014A2.007,2.007,0,0,0,10.145,14.386Z" transform="translate(0.561 -3.124)"/><path class="a" d="M47.329,22.617c-2.2-9.186-4.525-14.064-9.186-15.444a9.258,9.258,0,0,0-2.667-.415c-2.865,0-4.868,1.526-9.974,1.526s-7.11-1.526-9.974-1.526a9.156,9.156,0,0,0-2.667.415C8.2,8.553,5.874,13.441,3.674,22.617s-1.8,15.818.8,17.053a3.028,3.028,0,0,0,1.3.291c2.252,0,4.681-2.47,7.027-5.4,2.667-3.332,3.332-3.425,11.448-3.425h2.522c8.106,0,8.781.083,11.448,3.425,2.335,2.927,4.774,5.4,7.027,5.4a3.062,3.062,0,0,0,1.3-.291C49.124,38.424,49.519,31.792,47.329,22.617ZM12.963,24.142a4.11,4.11,0,1,1,4.069-4.11A4.1,4.1,0,0,1,12.963,24.142Zm17.946-2.024a2.086,2.086,0,1,1,2.086-2.086A2.086,2.086,0,0,1,30.909,22.118Zm4.557,4.557A2.081,2.081,0,1,1,37.551,24.6,2.084,2.084,0,0,1,35.465,26.675Zm0-9.113a2.086,2.086,0,1,1,2.086-2.086A2.086,2.086,0,0,1,35.465,17.562Zm4.556,4.557a2.086,2.086,0,1,1,2.086-2.086A2.086,2.086,0,0,1,40.022,22.118Z" transform="translate(-2.247 -6.757)"/></svg>