<svg width="47" height="47" viewBox="0 0 47 47" fill="none" xmlns="http://www.w3.org/2000/svg">
<path fill-rule="evenodd" clip-rule="evenodd" d="M0.137818 23.1076C-0.282297 25.0575 0.192344 27.4119 2.47824 29.6979C4.15448 31.3742 5.86522 32.0741 7.42291 32.1656C7.51453 33.7232 8.21452 35.4337 9.89061 37.1098C11.5665 38.7858 13.2769 39.4858 14.8343 39.5775C14.9259 41.1351 15.6259 42.8457 17.302 44.5218C19.588 46.8077 21.9425 47.2823 23.8924 46.8622C26.4919 46.3021 27.7078 43.891 28.3074 42.5716L37.8804 21.5114C38.6034 19.9202 38.2638 18.0475 37.028 16.8117L30.1885 9.97195C28.9524 8.73612 27.0797 8.39651 25.4886 9.11956L4.42837 18.6924C3.10898 19.2921 0.697866 20.5081 0.137818 23.1076ZM4.29336 25.0201C4.16517 24.6122 4.17584 24.2724 4.23657 23.9906C4.26932 23.8386 4.36697 23.6359 4.69315 23.3621C5.03937 23.0717 5.53133 22.7967 6.16338 22.5095L27.2235 12.9367L27.4818 13.195L9.24125 27.3819C8.96256 27.6522 8.59151 27.8461 8.21433 27.9331C7.76371 28.0371 6.82186 28.112 5.44299 26.7331C4.72835 26.0185 4.42353 25.4346 4.29336 25.0201ZM19.6184 37.7587L33.8054 19.5183L34.0633 19.7764L24.4905 40.8366C24.2033 41.4687 23.9282 41.9606 23.6379 42.3068C23.3641 42.633 23.1613 42.7307 23.0094 42.7634C22.7274 42.8242 22.3878 42.8348 21.9798 42.7066C21.5654 42.5765 20.9815 42.2716 20.2668 41.557C18.8879 40.1781 18.9628 39.2363 19.0668 38.7857C19.1545 38.406 19.3417 38.0353 19.6184 37.7587ZM30.8174 16.5299L16.5126 34.9219C16.3597 35.0397 16.0188 35.2546 15.6267 35.3451C15.1761 35.449 14.2342 35.5239 12.8554 34.145C11.4765 32.7662 11.5514 31.8244 11.6554 31.3738C11.7461 30.9807 11.962 30.6389 12.0794 30.4866L30.4702 16.1828L30.8174 16.5299Z" fill="url(#paint0_linear_48_509)"/>
<path fill-rule="evenodd" clip-rule="evenodd" d="M38.9254 15.7439C39.9641 16.7825 41.7561 17.0552 43.0641 15.9319C43.9706 15.1535 45.6477 13.5026 46.385 11.2211C46.7678 10.0375 46.9003 8.67148 46.5269 7.21049C46.1552 5.75559 45.3181 4.34806 43.9848 3.01475C42.6515 1.68144 41.2438 0.844347 39.7889 0.472446C38.3279 0.0992867 36.9621 0.231777 35.7783 0.614372C33.4969 1.35189 31.8458 3.029 31.0676 3.93528C29.9444 5.24343 30.2169 7.03544 31.2557 8.074L38.9254 15.7439ZM42.3955 9.93162C42.1442 10.7094 41.6343 11.4249 41.1096 11.9987L35.0009 5.88997C35.5747 5.36524 36.2902 4.85539 37.0678 4.60403C37.6105 4.42856 38.164 4.38475 38.7509 4.53485C39.344 4.68642 40.1128 5.07216 41.0201 5.97948C41.9274 6.88681 42.3132 7.65556 42.4647 8.24863C42.6146 8.83541 42.571 9.38886 42.3955 9.93162Z" fill="url(#paint1_linear_48_509)"/>
<defs>
<linearGradient id="paint0_linear_48_509" x1="16.8126" y1="8.57145" x2="16.8126" y2="46.6569" gradientUnits="userSpaceOnUse">
<stop stop-color="#751CDB"/>
<stop offset="1" stop-color="#2BD3FE"/>
</linearGradient>
<linearGradient id="paint1_linear_48_509" x1="37.5522" y1="0.17695" x2="37.5522" y2="16.5106" gradientUnits="userSpaceOnUse">
<stop stop-color="#751CDB"/>
<stop offset="1" stop-color="#2BD3FE"/>
</linearGradient>
</defs>
</svg>
