<svg width="53" height="46" viewBox="0 0 53 46" fill="none" xmlns="http://www.w3.org/2000/svg">
<path d="M24.2917 37.2381C24.2917 38.4479 25.2803 39.4286 26.5 39.4286C27.7197 39.4286 28.7083 38.4479 28.7083 37.2381H24.2917ZM26.5 26.2857H28.7083C28.7083 25.7048 28.4756 25.1475 28.0615 24.7368L26.5 26.2857ZM18.7708 18.619L17.3166 16.9705C16.8566 17.3698 16.5841 17.9402 16.5637 18.5461C16.5434 19.1521 16.7771 19.7393 17.2093 20.1679L18.7708 18.619ZM27.6042 10.9524L29.281 9.52684C28.8971 9.08281 28.3504 8.80942 27.7623 8.76753C27.1742 8.72565 26.5936 8.91876 26.15 9.30387L27.6042 10.9524ZM40.8542 21.9048C42.0738 21.9048 43.0625 20.9241 43.0625 19.7143C43.0625 18.5045 42.0738 17.5238 40.8542 17.5238V21.9048ZM17.6667 35.0476C17.6667 38.677 14.7005 41.619 11.0417 41.619V46C17.1398 46 22.0833 41.0964 22.0833 35.0476H17.6667ZM11.0417 41.619C7.38279 41.619 4.41667 38.677 4.41667 35.0476H0C0 41.0964 4.94353 46 11.0417 46V41.619ZM4.41667 35.0476C4.41667 31.4182 7.38279 28.4762 11.0417 28.4762V24.0952C4.94353 24.0952 0 28.9988 0 35.0476H4.41667ZM11.0417 28.4762C14.7005 28.4762 17.6667 31.4182 17.6667 35.0476H22.0833C22.0833 28.9988 17.1398 24.0952 11.0417 24.0952V28.4762ZM28.7083 37.2381V26.2857H24.2917V37.2381H28.7083ZM28.0615 24.7368L20.3324 17.0701L17.2093 20.1679L24.9385 27.8346L28.0615 24.7368ZM20.225 20.2676L29.0584 12.6009L26.15 9.30387L17.3166 16.9705L20.225 20.2676ZM25.9274 12.3779C27.0618 13.6907 29.1571 16.0056 31.696 18.0067C34.1561 19.9456 37.4207 21.9048 40.8542 21.9048V17.5238C38.9877 17.5238 36.7314 16.3799 34.4436 14.5767C32.2346 12.8357 30.3549 10.7696 29.281 9.52684L25.9274 12.3779ZM48.5833 35.0476C48.5833 38.677 45.6173 41.619 41.9583 41.619V46C48.0564 46 53 41.0964 53 35.0476H48.5833ZM41.9583 41.619C38.2993 41.619 35.3333 38.677 35.3333 35.0476H30.9167C30.9167 41.0964 35.8602 46 41.9583 46V41.619ZM35.3333 35.0476C35.3333 31.4182 38.2993 28.4762 41.9583 28.4762V24.0952C35.8602 24.0952 30.9167 28.9988 30.9167 35.0476H35.3333ZM41.9583 28.4762C45.6173 28.4762 48.5833 31.4182 48.5833 35.0476H53C53 28.9988 48.0564 24.0952 41.9583 24.0952V28.4762ZM35.3333 4.38095V8.7619C37.7727 8.7619 39.75 6.80049 39.75 4.38095H35.3333ZM35.3333 4.38095H30.9167C30.9167 6.80049 32.894 8.7619 35.3333 8.7619V4.38095ZM35.3333 4.38095V0C32.894 0 30.9167 1.96142 30.9167 4.38095H35.3333ZM35.3333 4.38095H39.75C39.75 1.96142 37.7727 0 35.3333 0V4.38095Z" fill="url(#paint0_linear_48_504)"/>
<defs>
<linearGradient id="paint0_linear_48_504" x1="26.5" y1="0" x2="26.5" y2="46" gradientUnits="userSpaceOnUse">
<stop stop-color="#751CDB"/>
<stop offset="1" stop-color="#2BD3FE"/>
</linearGradient>
</defs>
</svg>
