<svg width="74" height="44" viewBox="0 0 74 44" fill="none" xmlns="http://www.w3.org/2000/svg">
<path d="M51.2319 0.325001C51.0196 0.123671 50.7404 0.00791956 50.4479 0C50.1547 0.00441272 49.8743 0.120671 49.6639 0.325001L47.0259 2.848C46.9116 2.95221 46.8202 3.07915 46.7577 3.22069C46.6951 3.36223 46.6628 3.51526 46.6628 3.67C46.6628 3.82474 46.6951 3.97777 46.7577 4.11931C46.8202 4.26085 46.9116 4.38779 47.0259 4.492L65.3399 21.986L47.0269 39.476C46.9126 39.5802 46.8212 39.7071 46.7587 39.8487C46.6961 39.9902 46.6638 40.1433 46.6638 40.298C46.6638 40.4527 46.6961 40.6058 46.7587 40.7473C46.8212 40.8889 46.9126 41.0158 47.0269 41.12L49.6649 43.643C49.8753 43.8473 50.1557 43.9636 50.4489 43.968C50.7429 43.9673 51.0247 43.8504 51.2329 43.643L73.0629 22.806C73.1773 22.7018 73.2687 22.5749 73.3312 22.4333C73.3937 22.2918 73.426 22.1387 73.426 21.984C73.426 21.8293 73.3937 21.6762 73.3312 21.5347C73.2687 21.3931 73.1773 21.2662 73.0629 21.162L51.2319 0.325001Z" fill="url(#paint0_linear_48_497)"/>
<path d="M26.7631 3.67C26.762 3.51544 26.7293 3.36275 26.6668 3.22137C26.6044 3.07998 26.5136 2.95291 26.4001 2.848L23.7621 0.325001C23.5498 0.123671 23.2706 0.00791956 22.9781 0C22.6849 0.00441272 22.4044 0.120671 22.1941 0.325001L0.363094 21.162C0.248712 21.2662 0.157338 21.3931 0.0948157 21.5347C0.0322937 21.6762 0 21.8293 0 21.984C0 22.1387 0.0322937 22.2918 0.0948157 22.4333C0.157338 22.5749 0.248712 22.7018 0.363094 22.806L22.1941 43.643C22.4064 43.8443 22.6856 43.9601 22.9781 43.968C23.2721 43.9673 23.5538 43.8504 23.7621 43.643L26.4001 41.12C26.5145 41.0158 26.6058 40.8889 26.6684 40.7473C26.7309 40.6058 26.7632 40.4527 26.7632 40.298C26.7632 40.1433 26.7309 39.9902 26.6684 39.8487C26.6058 39.7071 26.5145 39.5802 26.4001 39.476L8.08609 21.986L26.4001 4.492C26.5136 4.3871 26.6044 4.26002 26.6668 4.11863C26.7293 3.97725 26.762 3.82456 26.7631 3.67Z" fill="url(#paint1_linear_48_497)"/>
<defs>
<linearGradient id="paint0_linear_48_497" x1="60.0444" y1="0" x2="60.0444" y2="43.968" gradientUnits="userSpaceOnUse">
<stop stop-color="#751CDB"/>
<stop offset="1" stop-color="#2BD3FE"/>
</linearGradient>
<linearGradient id="paint1_linear_48_497" x1="13.3816" y1="0" x2="13.3816" y2="43.968" gradientUnits="userSpaceOnUse">
<stop stop-color="#751CDB"/>
<stop offset="1" stop-color="#2BD3FE"/>
</linearGradient>
</defs>
</svg>
