<svg width="54" height="54" viewBox="0 0 54 54" fill="none" xmlns="http://www.w3.org/2000/svg">
<path d="M53.141 3.32092C53.1413 2.79934 53.0187 2.28504 52.7831 1.81972C52.5475 1.35439 52.2055 0.951149 51.7849 0.64268C51.3643 0.334212 50.877 0.129206 50.3624 0.0442864C49.8478 -0.0406328 49.3204 -0.00307433 48.823 0.153916L15.61 9.96192C14.936 10.1736 14.3472 10.5948 13.9291 11.1642C13.5109 11.7336 13.2853 12.4215 13.285 13.1279V40.2619C12.1976 39.9973 11.0831 39.8607 9.964 39.8549C4.461 39.8549 0 42.8289 0 46.4979C0 50.1669 4.461 53.1409 9.964 53.1409C15.467 53.1409 19.928 50.1669 19.928 46.4979V22.2419L46.5 14.4559V33.6189C45.4126 33.3543 44.2981 33.2177 43.179 33.2119C37.679 33.2119 33.215 36.1859 33.215 39.8549C33.215 43.5239 37.675 46.4979 43.178 46.4979C48.681 46.4979 53.142 43.5239 53.142 39.8549L53.141 3.32092Z" fill="url(#paint0_linear_48_500)"/>
<defs>
<linearGradient id="paint0_linear_48_500" x1="26.571" y1="0" x2="26.571" y2="53.1409" gradientUnits="userSpaceOnUse">
<stop stop-color="#751CDB"/>
<stop offset="1" stop-color="#2BD3FE"/>
</linearGradient>
</defs>
</svg>
