<svg width="53" height="53" viewBox="0 0 53 53" fill="none" xmlns="http://www.w3.org/2000/svg">
<path fill-rule="evenodd" clip-rule="evenodd" d="M47.5727 24.5811C47.1435 19.8089 45.1111 15.1532 41.4651 11.5071C37.9171 7.95917 33.3305 5.83245 28.3914 5.3926C28.2245 6.74661 27.9489 8.08638 27.5753 9.40859L30.3363 10.6972C31.6638 11.3146 32.2361 12.8915 31.6187 14.219C30.9987 15.5438 29.4221 16.1186 28.0973 15.4986L25.6118 14.3406C24.8884 15.7396 24.0299 17.0858 23.0389 18.3656L25.0766 20.4034C26.1126 21.4394 26.1126 23.1168 25.0766 24.1528C24.0432 25.1862 22.3659 25.1862 21.3299 24.1528L19.3956 22.2147C17.8826 23.5184 16.2556 24.6079 14.5519 25.5088L15.5323 28.2038C16.0331 29.579 15.3256 31.0966 13.9504 31.5974C12.5752 32.0982 11.0542 31.3916 10.5534 30.0164L9.64723 27.5258C8.24553 27.9365 6.81998 28.2332 5.37853 28.4108C5.80778 33.1856 7.84012 37.8374 11.4861 41.4834C15.0341 45.0341 19.6208 47.1594 24.5599 47.5993C24.7401 46.134 25.0474 44.6828 25.4714 43.2572L22.6627 41.9479C21.3352 41.3305 20.7628 39.7537 21.3802 38.4262C22.0002 37.0986 23.5768 36.5266 24.9017 37.144L27.4984 38.355C28.394 36.6751 29.4698 35.0688 30.7576 33.577L28.6908 31.5133C27.6548 30.4773 27.6548 28.7999 28.6908 27.7639C29.7242 26.7305 31.4041 26.7305 32.4375 27.7639L34.6076 29.9336C35.8583 28.9638 37.1752 28.1183 38.5451 27.4055L37.4667 24.4414C36.9659 23.0662 37.6734 21.5446 39.0486 21.0438C40.4238 20.543 41.9447 21.2535 42.4455 22.6287L43.463 25.4221C44.8117 25.0352 46.1869 24.7533 47.5727 24.5811ZM47.3607 29.9608C43.0205 30.6735 39.0168 32.6927 35.845 35.8644C32.5938 39.1156 30.6436 43.166 29.9494 47.3897C34.2897 46.6769 38.2934 44.6552 41.4651 41.4834C44.7137 38.2349 46.6665 34.1818 47.3607 29.9608ZM5.59051 23.0311C6.52586 22.8774 7.43738 22.6365 8.33828 22.3609C8.83113 22.2125 9.30807 22.0198 9.78767 21.8343C12.493 20.7903 14.997 19.2393 17.1089 17.1275C20.3574 13.8789 22.3103 9.82456 23.0045 5.6009C18.6642 6.31368 14.6579 8.33543 11.4861 11.5071C8.23758 14.7557 6.28474 18.8101 5.59051 23.0311ZM52.8748 24.4543L52.7503 29.7486C52.0534 35.4084 49.5574 40.8873 45.2118 45.2329C40.8689 49.5731 35.3919 52.0698 29.7374 52.7693L24.4327 52.8961C18.3489 52.4271 12.3923 49.8858 7.73943 45.2329C3.08652 40.5773 0.545436 34.624 0.0764349 28.5376L0.203633 23.2433C0.90051 17.5835 3.39653 12.1045 7.73943 7.75898C12.0823 3.41873 17.5593 0.922 23.2165 0.225123L28.5186 0.0957419C34.6023 0.564743 40.5589 3.10607 45.2118 7.75898C49.8674 12.4145 52.4085 18.3679 52.8748 24.4543ZM8.33828 22.3609C8.83113 22.2125 9.30807 22.0198 9.78767 21.8343L8.33828 22.3609ZM26.4756 0C25.3866 0 24.2976 0.0899871 23.2165 0.225123L28.5186 0.0957419C27.8376 0.0453972 27.1566 0 26.4756 0ZM0.0764349 28.5376L0.203633 23.2433C-0.0136447 25.0027 -0.058701 26.7729 0.0764349 28.5376ZM52.8748 24.4543L52.7503 29.7486C52.9649 27.9918 53.0126 26.219 52.8748 24.4543ZM24.4327 52.8961L29.7374 52.7693C28.6537 52.9018 27.5673 52.9945 26.4756 52.9945C25.7946 52.9945 25.1137 52.9491 24.4327 52.8961Z" fill="url(#paint0_linear_48_505)"/>
<defs>
<linearGradient id="paint0_linear_48_505" x1="26.4763" y1="0" x2="26.4763" y2="52.9945" gradientUnits="userSpaceOnUse">
<stop stop-color="#751CDB"/>
<stop offset="1" stop-color="#2BD3FE"/>
</linearGradient>
</defs>
</svg>
