<svg width="37" height="51" viewBox="0 0 37 51" fill="none" xmlns="http://www.w3.org/2000/svg">
<path d="M13.3322 49.546C13.3243 49.8294 13.2331 50.1042 13.0699 50.336C12.9067 50.5678 12.6788 50.7464 12.4146 50.8494C12.1505 50.9524 11.8618 50.9753 11.5848 50.9151C11.3077 50.855 11.0545 50.7145 10.8569 50.5112C10.6592 50.3079 10.5259 50.0509 10.4735 49.7723C10.4212 49.4936 10.4521 49.2058 10.5625 48.9446C10.6729 48.6835 10.8578 48.4606 11.0941 48.304C11.3304 48.1474 11.6077 48.0639 11.8912 48.064C12.2788 48.0695 12.6483 48.2287 12.9185 48.5066C13.1887 48.7845 13.3375 49.1584 13.3322 49.546Z" fill="url(#paint0_linear_48_501)"/>
<path d="M23.5401 51.0002C23.8374 51.011 24.1311 50.9327 24.3837 50.7755C24.6362 50.6183 24.8361 50.3892 24.9577 50.1177C25.0792 49.8462 25.117 49.5446 25.0661 49.2515C25.0151 48.9584 24.8779 48.6871 24.6719 48.4725C24.4658 48.2579 24.2004 48.1097 23.9097 48.0469C23.6189 47.9841 23.316 48.0095 23.0397 48.1199C22.7635 48.2302 22.5265 48.4206 22.3591 48.6665C22.1917 48.9124 22.1015 49.2027 22.1001 49.5002C22.096 49.6933 22.13 49.8853 22.2002 50.0652C22.2704 50.2452 22.3753 50.4095 22.5091 50.5488C22.6428 50.6881 22.8027 50.7997 22.9796 50.8772C23.1566 50.9546 23.347 50.9964 23.5401 51.0002ZM21.0541 7.88021C22.0842 7.86414 23.0658 7.44024 23.7838 6.70146C24.5018 5.96267 24.8975 4.96931 24.8841 3.93921C24.8984 3.42716 24.81 2.91744 24.6239 2.44017C24.4379 1.9629 24.158 1.52779 23.8009 1.16054C23.4438 0.793293 23.0167 0.501373 22.5448 0.302038C22.0729 0.102703 21.5659 0 21.0536 0C20.5414 0 20.0343 0.102703 19.5624 0.302038C19.0906 0.501373 18.6635 0.793293 18.3063 1.16054C17.9492 1.52779 17.6694 1.9629 17.4833 2.44017C17.2973 2.91744 17.2088 3.42716 17.2231 3.93921C17.2098 4.96948 17.6056 5.96299 18.3238 6.70181C19.042 7.44062 20.0239 7.86441 21.0541 7.88021ZM0.283118 42.3102C0.095716 42.6724 -0.0013741 43.0744 0.000118167 43.4822C-0.0062901 44.1397 0.248174 44.773 0.707768 45.2433C1.16736 45.7136 1.79461 45.9825 2.45212 45.9912C2.9157 45.9879 3.36875 45.8527 3.75834 45.6014C4.14792 45.3502 4.45792 44.9932 4.65212 44.5722L13.0101 29.8022L9.54012 26.2332L0.283118 42.3102ZM18.3831 41.6472C18.1892 42.0684 17.8792 42.4257 17.4896 42.6772C17.1 42.9286 16.6468 43.0639 16.1831 43.0672C15.5261 43.0572 14.9 42.787 14.442 42.3159C13.984 41.8448 13.7316 41.2112 13.7401 40.5542C13.7381 40.1461 13.8352 39.7435 14.0231 39.3812L17.6611 32.8032L10.5611 25.5482C9.79437 24.8001 9.30086 23.8162 9.15962 22.7543C9.01838 21.6924 9.23758 20.6138 9.78212 19.6912L13.6101 12.7512L3.48112 12.7632C2.93875 12.7321 2.42883 12.4947 2.05586 12.0997C1.68289 11.7047 1.47512 11.182 1.47512 10.6387C1.47512 10.0954 1.68289 9.57276 2.05586 9.17776C2.42883 8.78275 2.93875 8.54535 3.48112 8.51421H34.1401C34.6799 8.54935 35.1861 8.78858 35.556 9.18332C35.9259 9.57806 36.1317 10.0988 36.1317 10.6397C36.1317 11.1807 35.9259 11.7014 35.556 12.0961C35.1861 12.4908 34.6799 12.7301 34.1401 12.7652H22.4401L16.8601 22.8172L22.5401 28.5912C23.1008 29.1121 23.4734 29.8039 23.6 30.5586C23.7266 31.3134 23.6001 32.0888 23.2401 32.7642L18.3831 41.6472ZM27.6311 45.7132C27.6311 45.8528 27.6036 45.991 27.5502 46.12C27.4968 46.249 27.4185 46.3662 27.3198 46.4649C27.2211 46.5636 27.1039 46.6419 26.9749 46.6953C26.8459 46.7487 26.7077 46.7762 26.5681 46.7762H8.50312C8.22119 46.7762 7.95082 46.6642 7.75146 46.4649C7.55211 46.2655 7.44012 45.9951 7.44012 45.7132C7.44012 45.4313 7.55211 45.1609 7.75146 44.9616C7.95082 44.7622 8.22119 44.6502 8.50312 44.6502H26.5711C26.853 44.6502 27.1234 44.7622 27.3228 44.9616C27.5221 45.1609 27.6341 45.4313 27.6341 45.7132H27.6311Z" fill="url(#paint1_linear_48_501)"/>
<defs>
<linearGradient id="paint0_linear_48_501" x1="11.8905" y1="48.064" x2="11.8905" y2="50.948" gradientUnits="userSpaceOnUse">
<stop stop-color="#751CDB"/>
<stop offset="1" stop-color="#2BD3FE"/>
</linearGradient>
<linearGradient id="paint1_linear_48_501" x1="18.0659" y1="0" x2="18.0659" y2="51.0012" gradientUnits="userSpaceOnUse">
<stop stop-color="#751CDB"/>
<stop offset="1" stop-color="#2BD3FE"/>
</linearGradient>
</defs>
</svg>
