<svg width="47" height="34" viewBox="0 0 47 34" fill="none" xmlns="http://www.w3.org/2000/svg">
<path d="M10.707 11.2608C10.308 11.258 9.91729 11.3738 9.58425 11.5934C9.25121 11.813 8.99089 12.1266 8.83631 12.4943C8.68173 12.8621 8.63984 13.2675 8.71596 13.6591C8.79209 14.0506 8.98279 14.4108 9.26388 14.6939C9.54498 14.9769 9.90381 15.1702 10.2949 15.249C10.6859 15.3279 11.0916 15.2888 11.4604 15.1368C11.8292 14.9848 12.1446 14.7266 12.3665 14.3952C12.5885 14.0637 12.7069 13.6737 12.707 13.2748C12.7079 13.0112 12.6569 12.7501 12.5569 12.5062C12.4569 12.2624 12.3098 12.0406 12.1241 11.8536C11.9384 11.6666 11.7176 11.518 11.4745 11.4162C11.2313 11.3145 10.9705 11.2617 10.707 11.2608Z" fill="url(#paint0_linear_48_494)"/>
<path d="M45.083 15.859C42.883 6.673 40.558 1.795 35.897 0.415C35.0331 0.147123 34.1345 0.00730434 33.23 0C30.365 0 28.362 1.526 23.256 1.526C18.15 1.526 16.146 0 13.282 0C12.3774 0.00582016 11.4786 0.145673 10.615 0.415C5.95403 1.795 3.62803 6.683 1.42803 15.859C-0.771972 25.035 -0.371972 31.677 2.22803 32.912C2.63439 33.1043 3.07847 33.2037 3.52803 33.203C5.78003 33.203 8.20903 30.733 10.555 27.803C13.222 24.471 13.887 24.378 22.003 24.378H24.525C32.631 24.378 33.306 24.461 35.973 27.803C38.308 30.73 40.747 33.203 43 33.203C43.4495 33.2026 43.8933 33.1032 44.3 32.912C46.878 31.666 47.273 25.034 45.083 15.859ZM10.717 17.384C9.90245 17.3921 9.10383 17.158 8.42257 16.7114C7.74131 16.2647 7.20815 15.6257 6.89078 14.8754C6.57341 14.1252 6.48614 13.2976 6.64007 12.4976C6.79399 11.6977 7.18216 10.9615 7.75529 10.3826C8.32842 9.8037 9.06065 9.40817 9.85901 9.24623C10.6574 9.08429 11.4858 9.16326 12.2392 9.47309C12.9926 9.78293 13.637 10.3097 14.0904 10.9864C14.5439 11.6631 14.786 12.4594 14.786 13.274C14.7887 14.3578 14.3622 15.3985 13.5997 16.1687C12.8372 16.9389 11.8008 17.3758 10.717 17.384ZM28.663 15.36C28.2505 15.36 27.8471 15.2377 27.5041 15.0084C27.1611 14.7792 26.8937 14.4534 26.7358 14.0723C26.5779 13.6911 26.5366 13.2717 26.6171 12.867C26.6976 12.4624 26.8963 12.0907 27.188 11.799C27.4797 11.5072 27.8514 11.3086 28.2561 11.2281C28.6607 11.1476 29.0801 11.1889 29.4613 11.3468C29.8425 11.5047 30.1683 11.772 30.3975 12.1151C30.6267 12.4581 30.749 12.8614 30.749 13.274C30.749 13.8272 30.5293 14.3578 30.1381 14.749C29.7469 15.1402 29.2163 15.36 28.663 15.36ZM33.22 19.917C32.8084 19.9162 32.4062 19.7933 32.0644 19.5639C31.7225 19.3345 31.4564 19.0089 31.2997 18.6282C31.143 18.2475 31.1027 17.8289 31.184 17.4254C31.2652 17.0218 31.4643 16.6514 31.7561 16.361C32.0479 16.0706 32.4192 15.8733 32.8232 15.794C33.2272 15.7147 33.6456 15.757 34.0255 15.9155C34.4054 16.0741 34.7297 16.3417 34.9575 16.6846C35.1853 17.0276 35.3062 17.4303 35.305 17.842C35.3026 18.3935 35.0818 18.9216 34.6908 19.3105C34.2998 19.6994 33.7715 19.9175 33.22 19.917ZM33.22 10.804C32.8075 10.804 32.4041 10.6817 32.0611 10.4524C31.7181 10.2232 31.4507 9.89744 31.2928 9.51628C31.1349 9.13511 31.0936 8.71568 31.1741 8.31104C31.2546 7.9064 31.4533 7.53471 31.745 7.24298C32.0367 6.95124 32.4084 6.75257 32.8131 6.67208C33.2177 6.59159 33.6371 6.6329 34.0183 6.79079C34.3995 6.94867 34.7253 7.21604 34.9545 7.55908C35.1837 7.90212 35.306 8.30543 35.306 8.718C35.306 8.99202 35.252 9.26336 35.1471 9.51651C35.0423 9.76966 34.8885 9.99966 34.6947 10.1934C34.5009 10.3871 34.2708 10.5407 34.0176 10.6455C33.7644 10.7503 33.494 10.8041 33.22 10.804ZM37.776 15.361C37.3635 15.361 36.9601 15.2387 36.6171 15.0094C36.2741 14.7802 36.0067 14.4544 35.8488 14.0733C35.6909 13.6921 35.6496 13.2727 35.7301 12.868C35.8106 12.4634 36.0093 12.0917 36.301 11.8C36.5927 11.5082 36.9644 11.3096 37.3691 11.2291C37.7737 11.1486 38.1931 11.1899 38.5743 11.3478C38.9555 11.5057 39.2813 11.773 39.5105 12.1161C39.7397 12.4591 39.862 12.8624 39.862 13.275C39.8618 13.8281 39.6419 14.3584 39.2507 14.7494C38.8595 15.1404 38.3291 15.361 37.776 15.361Z" fill="url(#paint1_linear_48_494)"/>
<defs>
<linearGradient id="paint0_linear_48_494" x1="10.693" y1="11.2607" x2="10.693" y2="15.2887" gradientUnits="userSpaceOnUse">
<stop stop-color="#751CDB"/>
<stop offset="1" stop-color="#2BD3FE"/>
</linearGradient>
<linearGradient id="paint1_linear_48_494" x1="23.2534" y1="0" x2="23.2534" y2="33.203" gradientUnits="userSpaceOnUse">
<stop stop-color="#751CDB"/>
<stop offset="1" stop-color="#2BD3FE"/>
</linearGradient>
</defs>
</svg>
