<?xml version="1.0" standalone="no"?>
<!DOCTYPE svg PUBLIC "-//W3C//DTD SVG 20010904//EN"
 "http://www.w3.org/TR/2001/REC-SVG-20010904/DTD/svg10.dtd">
<svg version="1.0" xmlns="http://www.w3.org/2000/svg"
 width="1040.000000pt" height="1040.000000pt" viewBox="0 0 1040.000000 1040.000000"
 preserveAspectRatio="xMidYMid meet">
<metadata>
Created by potrace 1.11, written by Peter Selinger 2001-2013
</metadata>
<g transform="translate(0.000000,1040.000000) scale(0.100000,-0.100000)"
fill="#000000" stroke="none">
<path d="M5276 8597 c3 -373 4 -391 29 -492 81 -327 291 -597 585 -753 77 -41
225 -95 290 -107 19 -3 46 -8 60 -11 14 -3 363 -7 775 -9 700 -3 913 -7 975
-20 14 -3 40 -8 59 -11 107 -18 341 -95 376 -124 7 -6 14 -8 17 -5 3 3 11 -1
18 -10 7 -8 16 -15 21 -15 4 0 36 -17 71 -37 256 -149 482 -395 618 -675 33
-67 95 -230 105 -273 1 -5 5 -21 9 -35 4 -14 8 -36 10 -50 4 -29 13 -82 22
-125 4 -16 8 -336 10 -709 2 -373 6 -681 9 -684 3 -3 13 2 23 11 10 10 24 17
30 17 7 0 12 4 12 9 0 5 8 12 18 15 9 4 31 19 48 34 18 15 42 34 54 42 99 68
310 273 405 395 17 21 35 43 40 49 21 23 122 162 144 199 13 21 30 44 38 52 8
8 12 15 9 15 -3 0 17 35 43 78 26 42 81 144 121 227 85 172 86 186 54 399 -4
21 -8 53 -10 70 -3 26 -29 149 -49 230 -22 93 -91 290 -137 396 -176 398 -458
768 -772 1015 -22 17 -46 37 -56 45 -9 8 -24 20 -32 25 -8 6 -56 38 -106 73
-50 34 -96 62 -101 62 -5 0 -11 3 -13 8 -6 14 -187 107 -328 169 -136 60 -400
141 -515 158 -24 4 -70 13 -105 20 -14 3 -47 8 -75 10 -27 3 -66 7 -85 10 -19
2 -418 7 -887 9 -468 2 -856 7 -862 10 -5 4 -12 2 -15 -3 -4 -6 -18 -6 -36 -1
-19 5 -30 5 -30 -1 0 -6 -4 -8 -9 -5 -5 4 -56 8 -113 10 -108 5 -149 11 -180
27 -10 5 -18 8 -18 5 0 -9 -138 51 -160 70 -8 7 -18 13 -23 13 -18 1 -119 85
-173 144 -89 98 -170 248 -190 352 -17 90 -21 18 -18 -318z"/>
<path d="M2428 8374 c-2 -1 -46 -5 -98 -8 -82 -4 -148 -13 -250 -31 -14 -3
-38 -7 -55 -10 -16 -3 -38 -8 -47 -11 -9 -3 -27 -7 -40 -10 -13 -3 -27 -6 -33
-8 -163 -45 -255 -78 -255 -93 0 -7 -5 -13 -10 -13 -6 0 -9 -3 -8 -7 0 -5 -3
-17 -7 -28 -33 -80 -65 -172 -65 -187 0 -9 -5 -20 -10 -23 -6 -4 -8 -10 -5
-15 3 -5 1 -11 -4 -14 -8 -5 -27 -81 -20 -81 1 0 -3 -10 -10 -23 -7 -13 -14
-31 -16 -40 -1 -9 -10 -44 -19 -77 -21 -76 -51 -199 -61 -254 -2 -9 -4 -16 -5
-16 -2 0 -8 -23 -15 -60 -3 -16 -10 -50 -15 -75 -5 -25 -12 -56 -14 -70 -3
-14 -18 -97 -35 -185 -16 -88 -32 -179 -36 -202 -31 -211 -36 -202 46 -79 68
104 245 296 308 336 13 8 29 20 35 25 16 13 48 34 66 42 8 4 17 9 20 13 12 15
211 95 260 104 14 3 50 10 80 15 155 31 364 42 520 26 79 -8 115 -12 115 -15
0 -1 11 -3 25 -5 55 -8 161 -36 205 -54 11 -5 49 -21 85 -36 146 -62 305 -171
449 -310 76 -73 217 -230 283 -315 46 -60 112 -147 133 -176 114 -157 307
-329 455 -403 85 -43 103 -52 120 -55 8 -2 22 -5 30 -8 24 -9 94 -26 110 -27
69 -5 414 -5 422 0 7 4 8 31 4 75 -3 38 -9 101 -12 139 -3 39 -8 74 -11 78 -3
4 -7 25 -9 47 -3 21 -11 69 -20 107 -8 37 -17 79 -20 93 -3 14 -12 46 -20 71
-9 25 -17 55 -19 65 -2 10 -4 19 -5 19 -1 0 -3 7 -5 15 -5 19 -33 98 -44 125
-5 11 -13 31 -18 45 -6 14 -22 49 -37 78 -14 30 -26 58 -26 62 0 31 -226 396
-292 471 -13 15 -34 41 -48 59 -45 59 -139 158 -224 237 -76 71 -115 103 -201
168 -33 25 -69 52 -80 61 -11 9 -30 21 -42 27 -13 5 -23 14 -23 19 0 4 -5 8
-10 8 -6 0 -29 11 -51 26 -117 74 -379 202 -379 186 0 -4 -4 -2 -8 3 -7 11
-245 93 -292 101 -14 3 -52 11 -85 19 -101 24 -183 37 -320 50 -55 6 -333 13
-337 9z"/>
<path d="M1322 8064 c-34 -18 -81 -46 -105 -61 -23 -14 -44 -25 -46 -24 -2 2
-7 -1 -10 -6 -3 -5 -28 -24 -56 -43 -46 -31 -123 -88 -135 -100 -3 -3 -27 -23
-55 -45 -59 -46 -295 -279 -295 -290 0 -4 -8 -15 -18 -24 -21 -20 -106 -129
-147 -191 -16 -25 -32 -47 -35 -50 -28 -27 -200 -350 -200 -375 0 -8 -3 -15
-8 -15 -4 0 -12 -15 -18 -32 -7 -18 -28 -79 -48 -136 -38 -106 -93 -310 -101
-370 -2 -19 -6 -42 -9 -51 -3 -9 -7 -37 -10 -62 -4 -25 -9 -72 -13 -105 -10
-78 -10 -2383 0 -2452 9 -67 25 -166 32 -212 18 -104 80 -321 115 -405 5 -11
20 -49 34 -85 13 -36 41 -98 60 -137 20 -40 36 -77 36 -83 0 -5 4 -10 9 -10 5
0 11 -8 14 -17 16 -47 190 -317 220 -341 8 -6 61 9 162 48 83 31 153 56 157
54 3 -2 8 -1 10 4 2 6 152 59 193 69 5 1 37 12 70 23 33 12 67 23 75 25 8 2
58 16 110 30 52 14 110 28 130 31 19 3 38 8 42 11 13 7 100 17 160 17 32 1 58
2 58 3 0 2 -21 22 -47 45 -94 86 -214 214 -258 274 -16 22 -34 44 -40 49 -6 6
-41 55 -77 110 -83 124 -158 275 -197 393 -29 88 -35 115 -48 197 -9 54 -8
2321 1 2465 14 236 25 381 31 435 3 22 7 67 10 100 3 33 7 78 10 100 2 22 7
60 10 85 3 25 7 55 9 67 3 12 7 51 10 88 4 37 8 70 10 74 3 4 7 27 10 51 3 25
10 70 16 100 6 30 13 71 16 90 5 28 57 263 68 305 12 46 49 164 56 180 5 11
19 45 30 75 12 30 34 79 50 108 15 28 25 52 22 51 -4 0 -35 -16 -70 -35z"/>
<path d="M5275 4824 l0 -2765 22 28 c13 15 23 34 23 41 0 6 4 12 9 12 5 0 18
15 29 34 42 71 182 216 277 288 66 50 188 118 250 141 22 8 49 18 60 23 23 8
22 8 90 24 73 17 130 24 215 24 41 0 77 4 80 8 5 6 5 4292 1 4321 0 5 -6 5
-11 2 -25 -16 -267 -3 -302 16 -10 5 -18 8 -18 5 0 -6 -110 30 -165 55 -27 12
-53 23 -57 23 -3 1 -48 29 -100 62 -93 61 -187 146 -263 237 -22 27 -46 54
-52 62 -7 7 -13 18 -13 24 0 6 -3 11 -8 11 -4 0 -16 16 -26 35 -11 19 -24 39
-30 45 -9 6 -11 -727 -11 -2756z"/>
<path d="M10356 5307 c-47 -98 -226 -379 -273 -425 -7 -7 -13 -17 -13 -20 0
-4 -10 -19 -22 -32 -21 -23 -91 -108 -128 -154 -32 -40 -279 -285 -344 -341
-38 -33 -79 -69 -92 -80 -12 -11 -35 -29 -50 -40 -16 -11 -35 -27 -44 -36 -9
-8 -27 -23 -39 -31 -23 -16 -24 -23 -26 -150 -2 -73 -5 -146 -8 -163 -3 -16
-8 -52 -12 -79 -3 -27 -8 -53 -10 -57 -3 -4 -7 -24 -11 -45 -7 -45 -45 -165
-77 -244 -23 -57 -118 -240 -136 -262 -6 -7 -34 -44 -63 -83 -97 -130 -219
-252 -323 -323 -22 -15 -42 -29 -45 -33 -10 -10 -155 -95 -200 -116 -127 -59
-284 -115 -327 -116 -7 0 -13 -4 -13 -8 0 -4 -10 -5 -22 -1 -13 3 -19 1 -15
-5 4 -6 -1 -10 -11 -10 -50 0 -47 37 -45 -540 1 -296 2 -541 2 -545 1 -4 7 -5
14 -3 6 2 35 7 62 10 94 10 266 43 340 65 96 29 201 63 210 69 6 3 18 7 28 8
9 2 47 16 84 33 36 16 72 30 79 30 8 0 14 5 14 10 0 6 6 10 13 10 18 0 177 84
259 136 37 24 71 44 74 44 2 0 10 4 17 10 7 5 55 41 107 80 52 38 118 89 145
112 75 64 244 234 306 308 29 36 56 67 59 70 30 28 212 300 202 300 -4 0 -2 4
3 8 14 10 26 32 90 157 30 61 55 116 55 123 0 6 5 12 10 12 6 0 9 3 8 8 -1 8
6 29 28 79 8 17 14 38 14 46 0 9 4 18 9 21 9 6 25 64 22 84 -1 6 4 12 10 12 7
0 10 3 6 6 -3 3 1 25 10 47 8 23 16 50 18 60 2 10 7 27 10 37 6 20 13 50 21
90 6 34 13 70 20 100 3 14 7 38 9 53 2 15 7 47 11 70 3 23 8 58 11 77 9 59 15
1620 6 1619 -4 0 -21 -28 -37 -62z"/>
<path d="M3455 4849 c-22 -4 -53 -9 -70 -12 -38 -7 -108 -30 -160 -52 -22 -10
-40 -16 -40 -15 0 5 -138 -81 -175 -109 -85 -63 -181 -177 -238 -283 -34 -63
-79 -182 -87 -231 -3 -18 -10 -48 -15 -68 -8 -30 -20 -139 -24 -219 l-1 -25
1202 -3 1201 -2 0 514 0 513 -777 0 c-427 0 -794 -4 -816 -8z"/>
<path d="M3959 3556 c-1 0 -3 -10 -4 -21 -15 -105 -57 -237 -107 -341 -38 -77
-87 -157 -99 -162 -5 -2 -9 -8 -9 -14 0 -36 -279 -297 -317 -298 -7 0 -13 -4
-13 -8 0 -11 -160 -91 -261 -131 -83 -32 -240 -77 -305 -86 -109 -15 -151 -18
-309 -19 -93 -1 -180 2 -192 6 -13 4 -23 3 -23 -2 0 -6 -9 -6 -22 -1 -13 4
-34 5 -48 1 -14 -4 -37 -3 -52 1 -16 4 -28 5 -28 1 0 -4 -26 -7 -58 -8 -98 -1
-264 -15 -342 -29 -14 -3 -47 -7 -75 -11 -27 -3 -104 -17 -170 -31 -66 -13
-131 -27 -144 -29 -14 -3 -28 -7 -33 -10 -5 -3 -21 -8 -36 -10 -15 -3 -45 -10
-67 -16 -22 -7 -43 -12 -47 -14 -5 -1 -10 -3 -13 -4 -3 -1 -9 -4 -15 -5 -5 -1
-11 -4 -12 -5 -2 -1 -12 -4 -23 -6 -48 -7 -222 -73 -384 -146 l-44 -20 44 -46
c24 -25 52 -52 61 -60 10 -7 38 -31 62 -53 67 -61 178 -149 203 -161 13 -6 23
-15 23 -20 0 -4 4 -8 9 -8 4 0 42 -22 84 -50 89 -59 250 -143 362 -190 90 -37
240 -91 270 -96 11 -2 61 -15 111 -28 51 -14 109 -27 131 -31 21 -3 50 -8 63
-10 14 -3 48 -8 75 -11 28 -2 66 -8 85 -11 49 -9 399 -9 493 0 100 9 202 26
312 52 11 3 29 7 40 9 11 2 46 12 79 21 32 9 64 18 70 20 6 1 18 5 26 8 8 4
49 18 90 32 87 30 81 28 225 96 116 55 290 157 365 215 25 18 52 37 60 41 8 3
17 9 20 12 3 3 43 38 90 77 145 122 280 263 385 404 31 41 62 82 68 90 14 18
106 164 126 200 41 76 123 245 142 291 29 74 100 288 106 319 2 14 9 43 15 65
14 51 15 52 22 100 4 23 9 52 11 65 3 14 7 37 10 51 l5 26 -545 0 c-300 0
-546 0 -546 -1z"/>
<path d="M6214 2419 c-3 -6 -12 -8 -19 -6 -13 6 -138 -26 -191 -48 -19 -8 -34
-11 -34 -7 0 4 -4 3 -8 -3 -4 -5 -38 -26 -77 -44 -72 -36 -182 -114 -245 -173
-44 -42 -140 -152 -140 -162 0 -4 -8 -15 -18 -26 -22 -24 -94 -169 -117 -235
-37 -107 -55 -201 -61 -308 l-3 -57 1244 0 1243 1 0 540 0 539 -784 0 c-522
-1 -786 -4 -790 -11z"/>
</g>
</svg>
